<?xml version="1.0" encoding="utf-8"?>
<!-- Generator: Adobe Illustrator 24.3.0, SVG Export Plug-In . SVG Version: 6.00 Build 0)  -->
<svg version="1.1" id="Layer_1" xmlns="http://www.w3.org/2000/svg" xmlns:xlink="http://www.w3.org/1999/xlink" x="0px" y="0px"
	 viewBox="0 0 1088 1088" style="enable-background:new 0 0 1088 1088;" xml:space="preserve">
<style type="text/css">
	.st0{fill:none;}
</style>
<g>
	<path class="st0" d="M0,141.73v804.54C0,1024.54,63.46,1088,141.73,1088h804.54c78.28,0,141.73-63.46,141.73-141.73V141.73
		C1088,63.46,1024.54,0,946.27,0H141.73C63.46,0,0,63.46,0,141.73z M917.69,319.8c-4.02,0-7.8-0.05-11.57,0.01
		c-31.07,0.5-62.24-0.38-93.17,1.91c-33.3,2.47-52.92,19.71-55.02,53.04c-2.84,45.18-0.71,90.67-0.71,137.01
		c48.21,0,97.1,0,146.86,0c-6.84,54.9-13.54,108.73-20.33,163.25c-42.58,0-84.62,0-127.8,0c0,137.19,0,273.62,0,410.53
		c-55.08,0-109.02,0-163.71,0c0-136.63,0-272.87,0-409.94c-44.55,0-88.36,0-132.87,0c0-54.74,0-108.66,0-163.46
		c43.59,0,87.37,0,132.58,0c0-4.29-0.03-7.71,0-11.14c0.41-48.13-0.89-96.34,1.68-144.35c3.03-56.48,22.42-106.81,66.89-144.7
		c29.84-25.43,65.2-37.94,103.62-42.88c2.88-0.37,5.7-1.19,8.54-1.8c22.73,0,45.46,0,68.19,0c15.76,1.2,31.53,2.35,47.28,3.63
		c9.77,0.8,19.52,1.8,29.52,2.73C917.69,222.61,917.69,270.64,917.69,319.8z"/>
</g>
</svg>
