<?xml version="1.0" encoding="utf-8"?>
<!-- Generator: Adobe Illustrator 24.3.0, SVG Export Plug-In . SVG Version: 6.00 Build 0)  -->
<svg version="1.1" id="Layer_1" xmlns="http://www.w3.org/2000/svg" xmlns:xlink="http://www.w3.org/1999/xlink" x="0px" y="0px"
	 viewBox="0 0 1088 1088" style="enable-background:new 0 0 1088 1088;" xml:space="preserve">
<style type="text/css">
	.st0{fill:#FFFFFF;}
</style>
<g>
	<path d="M315.09,509.55c-39.92-0.11-73.21,32.88-73.34,72.68c-0.13,40.15,33.27,73.57,73.58,73.63
		c39.94,0.06,73.21-33.29,73.22-73.42C388.56,542.12,355.86,509.67,315.09,509.55z M315.11,619.89
		c-21.11-0.06-37.39-16.45-37.39-37.64c0-20.7,16.48-37.11,37.4-37.25c20.81-0.13,37.69,16.64,37.72,37.48
		C352.87,603.25,336.04,619.95,315.11,619.89z"/>
	<path d="M756.4,357.03c-68.41-30.25-140.6-41.49-214.93-41.37c-73.37,0.12-144.55,11.9-212.13,40.14
		c117.49,15.01,189.09,80,215.05,192.95C570.15,437.22,640.61,372.64,756.4,357.03z"/>
	<path d="M771.26,509.55c-41.18-0.35-74.35,31.95-74.6,72.67c-0.25,39.86,32.65,73.3,72.44,73.63
		c40.31,0.34,73.76-32.39,74.05-72.45C843.45,542.9,811.32,509.9,771.26,509.55z M770.63,619.71
		c-20.83,0.18-37.64-16.22-37.69-36.78c-0.05-21.09,15.95-37.31,36.9-37.41c20.55-0.09,37.21,16.26,37.31,36.65
		C807.26,602.71,790.89,619.54,770.63,619.71z"/>
	<path d="M317.71,403.98c-99.92-0.16-180.82,80.96-180.41,182.03c0.4,98.97,82,179.5,181.56,179.26
		c98.7-0.24,179.83-80.79,180.14-179.63C499.31,484.79,418.82,404.13,317.71,403.98z M314.94,694.71
		c-61.78-0.19-112.06-50.62-111.98-112.32c0.07-62.04,50.09-111.84,112.18-111.69c62.68,0.15,112.63,49.9,112.42,111.98
		C427.35,644.88,377.06,694.91,314.94,694.71z"/>
	<path d="M772.64,404.58c-100.67-1.09-182.21,78.8-183.15,179.44c-0.93,99.73,79.59,181.2,180.06,182.2
		c99.65,0.99,180.64-78.89,181.8-179.32C952.52,487.05,872.75,405.66,772.64,404.58z M769.31,694.7
		c-61.5-0.1-111.55-50.42-111.53-112.12c0.02-62.21,49.8-111.99,111.89-111.88c62.84,0.11,112.6,49.57,112.46,111.79
		C881.99,644.96,831.88,694.8,769.31,694.7z"/>
	<path d="M0,141.73v804.54C0,1024.54,63.46,1088,141.73,1088h804.54c78.28,0,141.73-63.46,141.73-141.73V141.73
		C1088,63.46,1024.54,0,946.27,0H141.73C63.46,0,0,63.46,0,141.73z M997.71,595.74c-0.28,1.5-0.71,2.99-0.83,4.5
		c-2.24,29.17-8.72,57.42-21.96,83.48c-39.38,77.54-103.02,120.7-189.52,127.99c-59.26,4.99-112.31-13.48-158.52-50.65
		c-12.66-10.19-23.74-22.35-35.79-33.84c-15.62,23.23-31.65,47.07-47.97,71.33c-16.14-24.08-31.94-47.64-47.64-71.06
		c-1.06,0.47-1.42,0.52-1.61,0.73c-4.62,4.96-9.05,10.11-13.84,14.89c-52.07,52-115.19,74.35-187.97,66.71
		c-56.9-5.97-104.88-31.33-143.23-74.13c-36.49-40.72-55.74-88.74-57.88-143.1c-1.96-49.84,12-95.56,40.24-136.77
		c2.89-4.22,3.45-8.13,1.92-12.97c-8.73-27.74-21.97-53.14-39.15-76.55c-1.19-1.62-2.21-3.37-3.69-5.64c1.75,0,2.51,0,3.27,0
		c43.96-0.01,87.92,0.07,131.87-0.21c4.35-0.03,9.24-1.41,12.95-3.69c22.75-13.98,46.32-26.32,70.94-36.65
		c59.25-24.86,121.21-37.77,185.1-42.77c53.99-4.22,107.63-1.16,160.82,7.96c65.65,11.26,127.05,34.47,183.9,69.33
		c4.91,3.01,9.89,4.49,15.68,4.48c42.41-0.06,84.83,0.04,127.24,0.15c4.53,0.01,9.05,0.42,14.53,0.69
		c-2.04,3.13-3.51,5.42-5.01,7.69c-15.18,23.12-28.44,47.17-36.72,73.77c-1.83,5.88-1.24,10.35,2.25,15.45
		c18.66,27.28,31.66,57,37.24,89.72c1.37,8.01,2.25,16.11,3.35,24.16C997.71,579.09,997.71,587.42,997.71,595.74z"/>
</g>
</svg>
