<?xml version="1.0" encoding="utf-8"?>
<!-- Generator: Adobe Illustrator 24.3.0, SVG Export Plug-In . SVG Version: 6.00 Build 0)  -->
<svg version="1.1" id="Layer_1" xmlns="http://www.w3.org/2000/svg" xmlns:xlink="http://www.w3.org/1999/xlink" x="0px" y="0px"
	 viewBox="0 0 1088 1088" style="enable-background:new 0 0 1088 1088;" xml:space="preserve">
<style type="text/css">
	.st0{fill:#FFFFFF;}
</style>
<g>
	<path d="M846.56,425.59c-0.87-22.72-2.38-45.39-6.21-67.85c-2.14-12.54-4.92-24.92-10.33-36.52
		c-16.03-34.37-41.97-57.57-78.38-68.52c-19.15-5.76-39.02-7.65-58.88-9.22c-24.04-1.89-48.14-2.57-72.25-2.56
		c-26.51,0.02-53.02,0.27-79.53,0.33c-33.79,0.07-67.58-0.24-101.37,0.13c-28.16,0.31-56.25,2.11-84.07,6.95
		c-17.25,3-33.68,8.2-48.64,17.58c-25.84,16.2-43.77,38.65-53.15,67.69c-5.43,16.81-7.54,34.28-9.24,51.78
		c-2.33,23.94-3.25,47.97-3.34,72.02c-0.1,25.97,0.12,51.93,0.18,77.9c0.08,39.15-0.16,78.31,0.28,117.46
		c0.3,27,2.23,53.92,6.92,80.57c3,17.04,8.17,33.29,17.44,48.05c17.16,27.31,41.1,45.73,72.18,54.55
		c14.76,4.19,29.95,6.11,45.19,7.67c22.57,2.31,45.21,3.33,67.87,3.51c31.18,0.25,62.36,0.06,93.54,0.06c0-0.11,0-0.22,0-0.33
		c35.64,0,71.29,0.28,106.93-0.09c26.58-0.27,53.1-2.09,79.36-6.55c14.88-2.53,29.35-6.32,42.77-13.52
		c30.21-16.23,50.84-40.51,61.21-73.24c5.23-16.5,7.28-33.64,8.95-50.8c2.25-23.05,3.2-46.19,3.28-69.34
		c0.12-32.42-0.33-64.85-0.19-97.27C847.23,499.22,847.97,462.4,846.56,425.59z M544.21,733.52
		c-104.92-0.03-189.37-84.49-189.39-189.4c-0.02-104.86,84.52-189.43,189.37-189.44c104.84,0,189.41,84.58,189.42,189.43
		C733.63,648.95,649.03,733.55,544.21,733.52z M741.37,391.08c-24.48,0.01-44.09-19.58-44.14-44.09
		c-0.05-24.4,19.67-44.21,44.04-44.25c24.47-0.04,44.31,19.79,44.28,44.25C785.51,371.45,765.84,391.07,741.37,391.08z"/>
	<path d="M544.14,420.99c-68.03,0.07-123.2,55.34-123.05,123.27c0.15,67.92,55.37,123.06,123.17,122.99
		c67.88-0.07,123.05-55.26,123.05-123.11C667.32,476.11,612.11,420.92,544.14,420.99z"/>
	<path d="M0,141.73v804.54C0,1024.54,63.46,1088,141.73,1088h804.54c78.28,0,141.73-63.46,141.73-141.73V141.73
		C1088,63.46,1024.54,0,946.27,0H141.73C63.46,0,0,63.46,0,141.73z M913.31,620.53c-0.1,1.29-0.26,2.59-0.29,3.88
		c-0.52,30.42-0.76,60.86-3.44,91.2c-1.51,17.12-4.38,34.02-9.04,50.59c-13.49,47.93-41.17,85.41-83.15,112.12
		c-27.21,17.32-57.51,25.8-89.22,29.92c-17.73,2.3-35.57,3.18-53.41,3.61c-28.84,0.69-57.68,1.4-86.52,1.49
		c-43.2,0.13-86.4-0.08-129.6-0.49c-30.35-0.29-60.71-0.69-90.95-3.8c-19.37-1.99-38.39-5.72-56.86-12.01
		c-40.13-13.67-72.22-38.06-96.44-72.76c-17.69-25.35-27.46-53.84-32.64-84.1c-3.41-19.89-4.65-39.97-5.22-60.08
		c-0.75-26.3-1.42-52.6-1.58-78.91c-0.36-58.32-0.59-116.64,1.02-174.95c0.61-22.31,1.21-44.63,4.13-66.8
		c2.42-18.35,6.2-36.4,12.79-53.73c20.57-54.08,58.03-91.51,111.88-112.41c24.66-9.57,50.53-13.76,76.8-15.35
		c18.37-1.11,36.77-1.74,55.17-2.16c61.74-1.42,123.48-1.43,185.22-0.57c29.73,0.41,59.47,0.76,89.14,3.06
		c18.17,1.41,36.1,4.26,53.71,9.04c37.88,10.28,69.87,29.97,95.77,59.54c23.2,26.49,37.02,57.44,44.11,91.67
		c4.53,21.87,6.16,44.04,6.9,66.29c0.66,20.05,0.97,40.1,1.45,60.15c0.02,1.02,0.18,2.04,0.27,3.06
		C913.31,518.86,913.31,569.7,913.31,620.53z"/>
</g>
</svg>
