<?xml version="1.0" encoding="utf-8"?>
<!-- Generator: Adobe Illustrator 22.0.1, SVG Export Plug-In . SVG Version: 6.00 Build 0)  -->
<svg version="1.1" id="Слой_2" xmlns="http://www.w3.org/2000/svg" xmlns:xlink="http://www.w3.org/1999/xlink" x="0px" y="0px"
	 viewBox="0 0 249.4 140.8" style="enable-background:new 0 0 249.4 140.8;" xml:space="preserve">
<style type="text/css">
	.st0{fill:#00A19A;}
</style>
<g>
	<g>
		<path d="M37.2,29h-9.1v37.9h-2.6V29h-9v-2.5h20.7V29z"/>
		<path d="M67.5,64.5v2.4H48.8V26.5h18.3V29H51.4v16.2H66v2.4H51.4v16.9H67.5z"/>
		<path d="M88.2,50.5h-5.4v16.4h-2.6V26.5h8.5c7.4,0,11.4,4.2,11.4,11.6c0,7-3.4,11.4-9.1,12.2l9.9,16.5h-3L88.2,50.5z M82.9,48h6.5
			c5.2,0,8.2-3.4,8.2-9.7c0-6.2-3-9.3-8.8-9.3h-5.9V48z"/>
		<path d="M121.2,50.5h-5.4v16.4h-2.6V26.5h8.5c7.4,0,11.4,4.2,11.4,11.6c0,7-3.4,11.4-9.1,12.2l9.9,16.5h-3L121.2,50.5z M115.9,48
			h6.5c5.2,0,8.2-3.4,8.2-9.7c0-6.2-3-9.3-8.8-9.3h-5.9V48z"/>
		<path d="M184.6,55.6V37.8c0-7.8,4.2-12,10.4-12c6.5,0,10.4,3.9,10.8,11.3h-2.5c-0.5-6.1-3.3-8.9-8.3-8.9c-4.7,0-7.9,3.1-7.9,9.6
			v17.8c0,6.5,3.2,9.6,8,9.6c5.1,0,8-2.9,8.5-8.9h2.5c-0.5,7.3-4.4,11.3-11,11.3C188.8,67.6,184.6,63.4,184.6,55.6z"/>
		<path d="M237.4,64.5v2.4h-18.7V26.5H237V29h-15.7v16.2h14.6v2.4h-14.6v16.9H237.4z"/>
	</g>
	<g>
		<path d="M121.9,104.5c0,7.1-4.3,11-11.4,11h-9.6V75.1h8.9c6.6,0,10.4,3.7,10.4,10.3c0,4.7-1.9,8.1-5.7,9.1
			C119.4,95.6,121.9,99.3,121.9,104.5z M103.5,77.6v15.9h6.6c5.1,0,7.5-3.2,7.5-8c0-5.2-2.7-7.8-7.8-7.8H103.5z M119.2,104.5
			c0-5.2-3.3-8.6-9-8.6h-6.7V113h7C116.2,113,119.2,110.2,119.2,104.5z"/>
		<path d="M207.5,99.1h-5.4v16.4h-2.6V75.1h8.5c7.4,0,11.4,4.2,11.4,11.6c0,7-3.4,11.4-9.1,12.2l9.9,16.5h-3L207.5,99.1z
			 M202.1,96.6h6.5c5.2,0,8.2-3.4,8.2-9.7c0-6.2-3-9.3-8.8-9.3h-5.9V96.6z"/>
	</g>
	<g>
		<path class="st0" d="M178.5,91.6h-36.7l-7.9,29.8h-3.1l27.6-102.9h3.5l27.6,102.9h-3.1L178.5,91.6z M177.7,88.8l-11-41.4l-6.6-25
			c-2.2,8.4-4.4,16.6-6.6,25l-11,41.4H177.7z"/>
	</g>
</g>
</svg>
