<?xml version="1.0" encoding="utf-8"?>
<!-- Generator: Adobe Illustrator 22.0.1, SVG Export Plug-In . SVG Version: 6.00 Build 0)  -->
<svg version="1.1" id="Слой_2" xmlns="http://www.w3.org/2000/svg" xmlns:xlink="http://www.w3.org/1999/xlink" x="0px" y="0px"
	 viewBox="0 0 269.4 179.3" style="enable-background:new 0 0 269.4 179.3;" xml:space="preserve">
<style type="text/css">
	.st0{fill:#00A19A;}
</style>
<g>
	<g>
		<path d="M44.9,29h-9.1v37.9h-2.6V29h-9v-2.5h20.7V29z"/>
		<path d="M75.2,64.5v2.4H56.6V26.5h18.3V29H59.2v16.2h14.6v2.4H59.2v16.9H75.2z"/>
		<path d="M96,50.5h-5.4v16.4H88V26.5h8.5c7.4,0,11.4,4.2,11.4,11.6c0,7-3.4,11.4-9.1,12.2l9.9,16.5h-3L96,50.5z M90.6,48h6.5
			c5.2,0,8.2-3.4,8.2-9.7c0-6.2-3-9.3-8.8-9.3h-5.9V48z"/>
		<path d="M129,50.5h-5.4v16.4H121V26.5h8.5c7.4,0,11.4,4.2,11.4,11.6c0,7-3.4,11.4-9.1,12.2l9.9,16.5h-3L129,50.5z M123.6,48h6.5
			c5.2,0,8.2-3.4,8.2-9.7c0-6.2-3-9.3-8.8-9.3h-5.9V48z"/>
		<path d="M192.3,55.6V37.8c0-7.8,4.2-12,10.4-12c6.5,0,10.4,3.9,10.8,11.3h-2.5c-0.5-6.1-3.3-8.9-8.3-8.9c-4.7,0-7.9,3.1-7.9,9.6
			v17.8c0,6.5,3.2,9.6,8,9.6c5.1,0,8-2.9,8.5-8.9h2.5c-0.5,7.3-4.4,11.3-11,11.3C196.6,67.6,192.3,63.4,192.3,55.6z"/>
		<path d="M245.2,64.5v2.4h-18.7V26.5h18.3V29h-15.7v16.2h14.6v2.4h-14.6v16.9H245.2z"/>
	</g>
	<g>
		<path d="M129.6,104.5c0,7.1-4.3,11-11.4,11h-9.6V75.1h8.9c6.6,0,10.4,3.7,10.4,10.3c0,4.7-1.9,8.1-5.7,9.1
			C127.1,95.6,129.6,99.3,129.6,104.5z M111.2,77.6v15.9h6.6c5.1,0,7.5-3.2,7.5-8c0-5.2-2.7-7.8-7.8-7.8H111.2z M127,104.5
			c0-5.2-3.3-8.6-9-8.6h-6.7V113h7C123.9,113,127,110.2,127,104.5z"/>
		<path d="M215.2,99.1h-5.4v16.4h-2.6V75.1h8.5c7.4,0,11.4,4.2,11.4,11.6c0,7-3.4,11.4-9.1,12.2l9.9,16.5h-3L215.2,99.1z
			 M209.9,96.6h6.5c5.2,0,8.2-3.4,8.2-9.7c0-6.2-3-9.3-8.8-9.3h-5.9V96.6z"/>
	</g>
	<g>
		<path class="st0" d="M186.2,91.6h-36.7l-7.9,29.8h-3.1l27.6-102.9h3.5l27.6,102.9h-3.1L186.2,91.6z M185.5,88.8l-11-41.4l-6.6-25
			c-2.2,8.4-4.4,16.6-6.6,25l-11,41.4H185.5z"/>
	</g>
</g>
<g>
	<path class="st0" d="M79.9,149c0-0.1,0.1-0.2,0.1-0.4c0-0.1,0.1-0.2,0.1-0.4c0-0.2,0.1-0.5,0.2-0.7c0.1-0.2,0.1-0.4,0.1-0.7
		c0,0,0-0.1,0-0.1c0,0,0,0,0-0.1c0.1-0.1,0.1-0.3,0.2-0.4c0.1-0.2,0.1-0.4,0.2-0.5c0.1-0.2,0.1-0.4,0.1-0.5c0-0.2,0-0.3,0-0.4
		c0,0,0-0.1,0.1-0.4c0.1-0.2,0.2-0.5,0.3-0.7c0.1-0.3,0.2-0.5,0.3-0.7c0.1-0.2,0.1-0.3,0.1-0.3c0.1-0.1,0.2-0.3,0.2-0.4
		c0-0.2,0.1-0.3,0.1-0.5c0-0.2,0.1-0.3,0.1-0.4c0-0.1,0.1-0.2,0.1-0.3c0.2-0.1,0.3-0.3,0.3-0.5c0.1-0.2,0.1-0.4,0.1-0.6
		c0-0.2,0.1-0.3,0.2-0.4c0.1-0.1,0.2-0.2,0.2-0.3c0-0.1,0-0.2,0.1-0.4c0.1-0.1,0.1-0.3,0.2-0.4c0.1-0.1,0.1-0.2,0.2-0.3
		c0.1-0.1,0.1-0.1,0.1-0.2c0.1-0.1,0.1-0.2,0.1-0.4c0-0.1,0-0.2,0.1-0.4c0.3-0.3,0.4-0.5,0.5-0.7c0.1-0.2,0.2-0.4,0.3-0.5
		s0.2-0.3,0.3-0.3c0.1-0.1,0.4-0.1,0.8-0.1c0.5,0,0.9,0.2,1.2,0.5c0.3,0.3,0.4,0.7,0.4,1.1c0,0,0,0.2,0,0.4c0,0.2,0,0.4-0.1,0.6
		c0,0.2-0.1,0.5-0.1,0.7c-0.1,0.2-0.1,0.4-0.2,0.5c0,0.3-0.1,0.6-0.2,0.9c-0.1,0.3-0.2,0.6-0.2,0.9c0,0,0,0.1-0.1,0.2
		c-0.1,0.1-0.1,0.3-0.2,0.5s-0.2,0.4-0.3,0.5c-0.1,0.2-0.2,0.3-0.3,0.4c0,0.1,0,0.2,0,0.3s0,0.2,0,0.3c0,0.1-0.1,0.1-0.2,0.2
		c-0.1,0-0.1,0.1-0.1,0.2c0,0.2,0,0.3-0.1,0.3c0,0.1-0.1,0.1-0.1,0.1c-0.1,0-0.1,0.1-0.1,0.1c0,0.1-0.1,0.2-0.1,0.4
		c0,0.2,0,0.4-0.1,0.5c-0.1,0.1-0.2,0.3-0.3,0.4c-0.1,0.1-0.2,0.2-0.3,0.3c-0.1,0.1-0.1,0.2-0.1,0.3c0,0.2-0.1,0.4-0.2,0.5
		c-0.1,0.2-0.2,0.3-0.3,0.5c-0.1,0.2-0.2,0.3-0.3,0.5c-0.1,0.2-0.2,0.5-0.2,0.8c0,0.1-0.1,0.2-0.2,0.4c-0.1,0.1-0.2,0.2-0.3,0.4
		c-0.1,0.1-0.2,0.2-0.3,0.4c-0.1,0.1-0.1,0.3-0.1,0.4c0,0.1,0,0.2-0.1,0.3s-0.1,0.2-0.2,0.3c-0.1,0.1-0.2,0.2-0.2,0.3
		c-0.1,0.1-0.1,0.2-0.1,0.3c0,0,0,0,0,0.1c0,0,0,0.1,0.1,0.1c0.4-0.1,0.9-0.3,1.4-0.6c0.5-0.3,1-0.5,1.4-0.8
		c0.5-0.3,0.9-0.5,1.4-0.7c0.4-0.2,0.8-0.3,1.2-0.3c0.1,0,0.2,0,0.3,0.1c0.1,0.1,0.1,0.1,0.1,0.2s0,0.1-0.1,0.2s-0.1,0.1-0.2,0.1
		c-0.6,0.3-1.2,0.5-1.7,0.8c-0.5,0.3-1.1,0.6-1.5,0.9c-0.5,0.3-1,0.6-1.5,1s-1,0.7-1.5,1c-0.2,0.1-0.3,0.3-0.3,0.6s-0.1,0.6-0.2,0.8
		c0.5,1.1,0.8,2.3,1,3.5c0.1,1.2,0.2,2.5,0.2,3.8c0,0.1,0,0.2-0.1,0.3c0,0.1-0.1,0.2-0.1,0.2c0,0.1,0,0.2,0.1,0.3
		c0,0.1,0.1,0.2,0.1,0.4c0,0.1,0,0.2,0,0.3c0,0.1-0.1,0.3-0.1,0.5c0,0.2-0.1,0.3-0.1,0.5c0,0.1,0,0.2,0,0.3c0,0.1,0,0.2,0,0.2
		c0,0.1,0,0.2,0,0.3c0,0.5-0.1,1-0.2,1.5c-0.1,0.5-0.2,1-0.2,1.5c0,0.1,0,0.2,0,0.2s0,0.2,0,0.2c0,0.2,0,0.3-0.1,0.5
		c-0.1,0.2-0.1,0.3-0.1,0.3c0,0.1,0,0.1,0,0.2s0,0.1,0,0.2c0,0.2,0,0.3-0.1,0.4c-0.1,0.1-0.2,0.2-0.3,0.2c-0.2,0-0.3,0-0.5,0
		c-0.2,0-0.3,0-0.5-0.1c-0.1,0-0.2-0.1-0.3-0.3c-0.1-0.2-0.2-0.4-0.3-0.7c-0.1-0.3-0.1-0.5-0.2-0.8c0-0.3-0.1-0.5-0.1-0.7
		c0-0.1,0-0.1,0-0.2c0-0.1,0-0.1,0-0.2c0,0,0-0.1,0-0.1c0,0,0-0.1,0-0.1c0-0.1,0-0.2,0.1-0.3c0-0.1,0-0.2,0-0.3c0-0.1,0-0.2,0-0.3
		c0,0,0-0.1-0.1-0.1S78,166,78,165.9c0,0,0-0.1,0-0.1s0,0,0-0.1c0,0,0-0.1,0-0.1c0,0,0-0.1,0-0.1c0-0.2,0-0.3,0.1-0.5
		c0-0.2,0.1-0.3,0.1-0.5c0-0.1,0-0.2-0.1-0.3s-0.1-0.2-0.1-0.3c0-0.2,0-0.3,0.1-0.4c0.1-0.1,0.1-0.3,0.1-0.5c0-0.2-0.1-0.3-0.2-0.5
		c0,0,0.1,0,0.1-0.1c0,0,0-0.1,0-0.1c0,0,0-0.1,0-0.1c0,0,0-0.1,0.1-0.1c0.1,0,0.1-0.1,0.1-0.2c0-0.1,0-0.2,0-0.3c0-0.1,0-0.2,0-0.3
		c0-0.2,0-0.4,0.1-0.6c0.1-0.2,0.1-0.4,0.1-0.6c0-0.1,0-0.2-0.1-0.3s-0.1-0.2-0.1-0.3c0-0.1,0-0.2,0-0.3c0.1-0.2,0.1-0.4,0.1-0.6
		c0-0.2,0-0.4,0-0.6c0,0,0-0.1,0-0.1c0,0,0-0.1,0-0.1l0,0c0.1-0.2,0.2-0.4,0.2-0.6c0-0.2,0-0.4,0-0.6c0-0.1,0-0.2-0.1-0.2
		c-0.1,0-0.1-0.1-0.2-0.1c0-0.1,0-0.3,0-0.4c0-0.2,0-0.3,0-0.4c0-0.1,0-0.1,0-0.2c0-0.1,0-0.1,0-0.2c0-0.1-0.1-0.2-0.2-0.3
		c-0.1-0.1-0.3-0.2-0.4-0.2c-0.2-0.1-0.3-0.2-0.4-0.2c-0.1-0.1-0.2-0.2-0.2-0.3c0-0.1,0-0.2,0.1-0.3c0.1-0.1,0.2-0.1,0.3-0.2
		c0.1-0.1,0.2-0.1,0.3-0.1c0.1,0,0.2-0.1,0.2-0.1c0.3-0.1,0.5-0.2,0.7-0.4c0.2-0.2,0.4-0.5,0.5-0.7c0.1-0.3,0.2-0.6,0.3-0.9
		c0.1-0.3,0.1-0.6,0.1-0.9c0,0,0-0.1,0-0.1c0-0.1,0-0.1,0-0.1c0-0.2,0-0.3,0.1-0.4C79.9,149.3,79.9,149.1,79.9,149z M78.2,162.6
		C78.2,162.7,78.1,162.7,78.2,162.6L78.2,162.6C78.1,162.7,78.1,162.6,78.2,162.6c-0.1-0.1-0.1-0.1-0.1-0.2L78.2,162.6z M78.5,157.8
		L78.5,157.8C78.5,157.8,78.5,157.8,78.5,157.8L78.5,157.8L78.5,157.8z M79,158.1C79,158.1,79,158.1,79,158.1
		C78.9,158.1,78.9,158.1,79,158.1c-0.1,0.1-0.1,0.1,0,0.1L79,158.1C79,158.2,79,158.1,79,158.1z M79.5,166.8
		c0.1-0.2,0.2-0.4,0.2-0.6c0-0.2,0.1-0.4,0.1-0.5c0-0.2,0-0.4,0.1-0.6c0-0.2,0-0.4,0.1-0.6c0.1-0.2,0.1-0.5,0.2-0.8
		c0-0.3,0-0.6,0-0.9c0-0.3,0-0.6,0.1-0.9c0-0.3,0.1-0.5,0.1-0.8c0-0.1,0-0.2,0-0.4c0-0.1,0-0.2,0-0.4c0-0.2,0-0.4,0-0.7s0-0.7,0-1
		c0-0.3-0.1-0.6-0.1-0.9s-0.2-0.4-0.3-0.4c-0.1,0-0.1,0-0.2,0.1c0,0.1,0,0.1,0,0.2c0,0.1,0,0.2,0,0.3c0,0.1,0,0.2,0,0.3
		c0,0.3,0,0.5-0.1,0.8c-0.1,0.3-0.1,0.6-0.1,0.8c0,0.1,0,0.2,0,0.3c0,0.1,0,0.2,0,0.3c0,0.2,0,0.4-0.1,0.6c0,0.2-0.1,0.4-0.1,0.6
		c0,0.1,0,0.2,0.1,0.4c0,0.1,0.1,0.2,0.1,0.4c0,0.2,0,0.3-0.1,0.5c0,0.2-0.1,0.4-0.1,0.5c0,0.4,0,0.7,0,1s0,0.7,0,1
		c0,0.1,0,0.1,0,0.2c0,0.1,0,0.1,0,0.2c0,0.1,0,0.2,0.1,0.3c0,0.1,0,0.2,0,0.2C79.3,166.5,79.4,166.6,79.5,166.8z M79.9,149
		c0,0-0.1-0.1-0.1-0.1c0,0,0,0,0.1,0C79.9,148.9,79.9,148.9,79.9,149C79.9,148.9,79.9,148.9,79.9,149C79.9,148.9,79.9,149,79.9,149
		L79.9,149z M84.1,144.8c0,0.1,0,0.2,0,0.2c0,0,0,0,0,0C84.1,144.9,84.1,144.8,84.1,144.8c0-0.1,0-0.1,0.1-0.2c0-0.1,0-0.2,0-0.2
		c0,0,0-0.1,0-0.1c0,0,0-0.1,0-0.1c0-0.2,0.1-0.4,0.2-0.5s0.2-0.3,0.2-0.6c0-0.1,0.1-0.2,0.1-0.4c0.1-0.2,0.2-0.3,0.2-0.5
		s0.2-0.3,0.2-0.4c0.1-0.1,0.1-0.2,0.1-0.3c0,0,0-0.1,0-0.2c0-0.2,0.1-0.5,0.2-0.7c0.1-0.3,0.2-0.5,0.2-0.8c0-0.2,0-0.3,0.1-0.5
		c0.1-0.2,0.1-0.3,0.1-0.4c0-0.1,0-0.2,0-0.2c0-0.1,0-0.2,0-0.2c0-0.1,0-0.2,0-0.2c0-0.1,0-0.2-0.1-0.3c-0.1-0.1-0.1-0.2-0.2-0.3
		c-0.1,0-0.2,0.1-0.3,0.2c-0.1,0.1-0.2,0.2-0.3,0.4c-0.1,0.1-0.2,0.3-0.2,0.5c-0.1,0.2-0.1,0.3-0.2,0.4c-0.4,1-0.8,2-1.1,2.8
		s-0.7,1.8-1.1,2.7c-0.1,0.2-0.1,0.3-0.2,0.5c0,0.2-0.1,0.3-0.1,0.4c-0.1,0.1-0.2,0.3-0.3,0.6s-0.1,0.5-0.2,0.8
		c-0.1,0.3-0.1,0.6-0.2,0.9c-0.1,0.3-0.2,0.6-0.3,0.8c0,0,0,0.1,0,0.1s0,0.1,0.1,0.1c0.1,0,0.2-0.1,0.3-0.1c0.1,0,0.1-0.1,0.2-0.2
		c0-0.1,0.1-0.2,0.2-0.3c0.1-0.1,0.2-0.2,0.2-0.4c0-0.2,0-0.3,0-0.3c0-0.1,0-0.1,0.1-0.2c0,0,0.1-0.1,0.2-0.1c0.1,0,0.2,0,0.3-0.1
		c0-0.1,0-0.2,0-0.2c0-0.1,0-0.2,0.1-0.4c0.1-0.2,0.1-0.3,0.2-0.4c0-0.1,0.1-0.2,0.2-0.4c0.1-0.2,0.2-0.4,0.3-0.6s0.2-0.4,0.3-0.5
		c0.1-0.2,0.2-0.2,0.2-0.2c0.1,0,0.1,0,0.2,0.1C84,144.7,84,144.7,84.1,144.8z M84.1,144.8C84.1,144.8,84.1,144.9,84.1,144.8
		l0.1,0.1c0,0,0,0,0,0C84.1,144.9,84.1,144.9,84.1,144.8L84.1,144.8z"/>
	<path class="st0" d="M97.1,147.1C97.1,147.1,97.1,147.1,97.1,147.1c0.1,0,0.2,0,0.3,0.1s0.2,0.2,0.2,0.3c0,0.1-0.1,0.2-0.2,0.3
		c-0.1,0.1-0.4,0.2-0.8,0.2c-0.4,0-0.8,0.1-1.1,0.3c-0.4,0.2-0.7,0.3-1,0.5c-0.2,0.1-0.4,0.2-0.5,0.3c-0.1,0.1-0.2,0.2-0.3,0.3
		c-0.1,0.1-0.1,0.2-0.2,0.3s-0.1,0.2-0.1,0.4c0,0,0,0.2-0.1,0.4c0,0.2-0.1,0.4-0.1,0.7c-0.1,0.2-0.1,0.5-0.2,0.7
		c-0.1,0.2-0.1,0.3-0.1,0.3c-0.1,0.1-0.2,0.2-0.2,0.3c0,0.1,0,0.2-0.1,0.4c0,0.1,0,0.3,0,0.4c0,0.1-0.1,0.3-0.1,0.4
		c-0.1,0.1-0.1,0.2-0.2,0.4c-0.1,0.1-0.2,0.3-0.3,0.5s-0.3,0.4-0.5,0.7c-0.2,0.3-0.6,0.6-1,1l0,0c0,0-0.1,0-0.2,0.1
		s-0.2,0.1-0.4,0.2s-0.3,0.1-0.4,0.2c-0.1,0.1-0.2,0.1-0.3,0.2c-0.2-0.1-0.5-0.1-0.8-0.2s-0.5-0.2-0.7-0.3c-0.3-0.2-0.6-0.5-0.8-0.9
		c-0.2-0.3-0.4-0.7-0.6-1.1c-0.2-0.4-0.2-1-0.2-1.6c0-0.2,0-0.5,0.1-0.7c0.1-0.2,0.1-0.4,0.1-0.6c0-0.1,0-0.2,0.1-0.4
		c0.1-0.2,0.1-0.3,0.2-0.5c0.1-0.2,0.1-0.4,0.2-0.6c0.1-0.2,0.1-0.4,0.1-0.5c0-0.1,0-0.3-0.1-0.4c-0.1-0.2-0.1-0.3-0.2-0.5
		c-0.1-0.2-0.1-0.4-0.2-0.6c-0.1-0.2-0.1-0.4-0.1-0.5c0-0.6,0.1-1.1,0.2-1.4c0.1-0.3,0.3-0.6,0.5-0.8c0.2-0.2,0.5-0.3,0.8-0.3
		c0.3,0,0.6-0.1,1-0.1h1.1c0.3,0,0.6,0.1,0.9,0.3c0.3,0.2,0.5,0.3,0.8,0.4c0.2,0.1,0.3,0.2,0.5,0.3c0.2,0.1,0.4,0.3,0.5,0.5
		c0.2,0.2,0.3,0.4,0.4,0.6c0.1,0.2,0.2,0.4,0.3,0.6c0,0.2,0.1,0.4,0.2,0.6c0.1,0.2,0.2,0.3,0.4,0.3c0,0,0.1,0,0.2,0
		c0.6-0.2,1.1-0.4,1.7-0.6C95.9,147.3,96.4,147.2,97.1,147.1z M88.7,145.4c0,0-0.1,0-0.2,0c-0.1,0-0.1,0-0.2,0
		c-0.2,0-0.3,0.1-0.5,0.2c-0.1,0.1-0.3,0.3-0.3,0.4c-0.1,0.2-0.2,0.3-0.2,0.5s-0.1,0.4-0.1,0.5c0,0.1,0,0.2,0,0.4
		c0,0.2,0.1,0.3,0.3,0.3c0,0,0,0,0,0c0.2-0.2,0.3-0.3,0.3-0.4s0.1-0.1,0.2-0.1c0.1,0,0.2,0,0.3,0.1c0,0,0.1,0,0.3,0.1
		c0.2,0,0.3,0.1,0.5,0.2c0.2,0.1,0.3,0.2,0.5,0.3c0.1,0.1,0.2,0.2,0.2,0.4c0,0.1-0.1,0.2-0.2,0.4c-0.1,0.2-0.2,0.3-0.2,0.4
		c0,0.1,0,0.1,0.1,0.2c0.1,0,0.1,0,0.2,0c0.2,0,0.3,0,0.6-0.1c0.2,0,0.4-0.1,0.6-0.2c0.2-0.1,0.4-0.2,0.5-0.3
		c0.1-0.1,0.2-0.2,0.2-0.4c0-0.1,0-0.1,0-0.2c0-0.1,0-0.1-0.1-0.2c-0.1-0.3-0.3-0.6-0.5-1s-0.4-0.6-0.7-0.9
		c-0.3-0.3-0.5-0.5-0.9-0.7C89.4,145.5,89.1,145.4,88.7,145.4z M92,150.5c0-0.2,0-0.3,0-0.4c0-0.1-0.1-0.2-0.3-0.2
		c-0.4,0.2-0.8,0.3-1.2,0.4c-0.4,0.1-0.9,0.2-1.3,0.2c-0.2,0.1-0.4,0.2-0.5,0.5s-0.1,0.6-0.1,1c0,0.1,0,0.1,0,0.2c0,0.1,0,0.1,0,0.2
		c0,0.2,0,0.3-0.1,0.5c-0.1,0.2-0.1,0.3-0.1,0.5c0,0.1,0,0.3,0.1,0.4c0,0.2,0.1,0.3,0.2,0.5c0.1,0.2,0.2,0.3,0.3,0.4
		c0.1,0.1,0.2,0.1,0.4,0.1c0.3,0,0.5-0.1,0.8-0.4c0.3-0.3,0.5-0.6,0.7-1c0.2-0.4,0.4-0.7,0.6-1c0.2-0.3,0.3-0.5,0.4-0.6
		c0.1-0.1,0.2-0.2,0.2-0.5C91.9,151,92,150.7,92,150.5z"/>
	<path class="st0" d="M107.3,147.1C107.3,147.1,107.3,147.1,107.3,147.1c0.1,0,0.2,0,0.3,0.1s0.2,0.2,0.2,0.3c0,0.1-0.1,0.2-0.2,0.3
		c-0.1,0.1-0.4,0.2-0.8,0.2c-0.4,0-0.8,0.1-1.1,0.3c-0.4,0.2-0.7,0.3-1,0.5c-0.2,0.1-0.4,0.2-0.5,0.3c-0.1,0.1-0.2,0.2-0.3,0.3
		c-0.1,0.1-0.1,0.2-0.2,0.3s-0.1,0.2-0.1,0.4c0,0,0,0.2-0.1,0.4c0,0.2-0.1,0.4-0.1,0.7c-0.1,0.2-0.1,0.5-0.2,0.7
		c-0.1,0.2-0.1,0.3-0.1,0.3c-0.1,0.1-0.2,0.2-0.2,0.3c0,0.1,0,0.2-0.1,0.4c0,0.1,0,0.3,0,0.4c0,0.1-0.1,0.3-0.1,0.4
		c-0.1,0.1-0.1,0.2-0.2,0.4c-0.1,0.1-0.2,0.3-0.3,0.5s-0.3,0.4-0.5,0.7c-0.2,0.3-0.6,0.6-1,1l0,0c0,0-0.1,0-0.2,0.1
		s-0.2,0.1-0.4,0.2s-0.3,0.1-0.4,0.2c-0.1,0.1-0.2,0.1-0.3,0.2c-0.2-0.1-0.5-0.1-0.8-0.2s-0.5-0.2-0.7-0.3c-0.3-0.2-0.6-0.5-0.8-0.9
		c-0.2-0.3-0.4-0.7-0.6-1.1c-0.2-0.4-0.2-1-0.2-1.6c0-0.2,0-0.5,0.1-0.7c0.1-0.2,0.1-0.4,0.1-0.6c0-0.1,0-0.2,0.1-0.4
		c0.1-0.2,0.1-0.3,0.2-0.5c0.1-0.2,0.1-0.4,0.2-0.6c0.1-0.2,0.1-0.4,0.1-0.5c0-0.1,0-0.3-0.1-0.4c-0.1-0.2-0.1-0.3-0.2-0.5
		c-0.1-0.2-0.1-0.4-0.2-0.6c-0.1-0.2-0.1-0.4-0.1-0.5c0-0.6,0.1-1.1,0.2-1.4c0.1-0.3,0.3-0.6,0.5-0.8c0.2-0.2,0.5-0.3,0.8-0.3
		c0.3,0,0.6-0.1,1-0.1h1.1c0.3,0,0.6,0.1,0.9,0.3c0.3,0.2,0.5,0.3,0.8,0.4c0.2,0.1,0.3,0.2,0.5,0.3c0.2,0.1,0.4,0.3,0.5,0.5
		c0.2,0.2,0.3,0.4,0.4,0.6c0.1,0.2,0.2,0.4,0.3,0.6c0,0.2,0.1,0.4,0.2,0.6c0.1,0.2,0.2,0.3,0.4,0.3c0,0,0.1,0,0.2,0
		c0.6-0.2,1.1-0.4,1.7-0.6C106.1,147.3,106.7,147.2,107.3,147.1z M98.9,145.4c0,0-0.1,0-0.2,0c-0.1,0-0.1,0-0.2,0
		c-0.2,0-0.3,0.1-0.5,0.2c-0.1,0.1-0.3,0.3-0.3,0.4c-0.1,0.2-0.2,0.3-0.2,0.5s-0.1,0.4-0.1,0.5c0,0.1,0,0.2,0,0.4
		c0,0.2,0.1,0.3,0.3,0.3c0,0,0,0,0,0c0.2-0.2,0.3-0.3,0.3-0.4s0.1-0.1,0.2-0.1c0.1,0,0.2,0,0.3,0.1c0,0,0.1,0,0.3,0.1
		c0.2,0,0.3,0.1,0.5,0.2c0.2,0.1,0.3,0.2,0.5,0.3c0.1,0.1,0.2,0.2,0.2,0.4c0,0.1-0.1,0.2-0.2,0.4c-0.1,0.2-0.2,0.3-0.2,0.4
		c0,0.1,0,0.1,0.1,0.2c0.1,0,0.1,0,0.2,0c0.2,0,0.3,0,0.6-0.1c0.2,0,0.4-0.1,0.6-0.2c0.2-0.1,0.4-0.2,0.5-0.3
		c0.1-0.1,0.2-0.2,0.2-0.4c0-0.1,0-0.1,0-0.2c0-0.1,0-0.1-0.1-0.2c-0.1-0.3-0.3-0.6-0.5-1s-0.4-0.6-0.7-0.9
		c-0.3-0.3-0.5-0.5-0.9-0.7C99.7,145.5,99.3,145.4,98.9,145.4z M102.3,150.5c0-0.2,0-0.3,0-0.4c0-0.1-0.1-0.2-0.3-0.2
		c-0.4,0.2-0.8,0.3-1.2,0.4c-0.4,0.1-0.9,0.2-1.3,0.2c-0.2,0.1-0.4,0.2-0.5,0.5s-0.1,0.6-0.1,1c0,0.1,0,0.1,0,0.2c0,0.1,0,0.1,0,0.2
		c0,0.2,0,0.3-0.1,0.5c-0.1,0.2-0.1,0.3-0.1,0.5c0,0.1,0,0.3,0.1,0.4c0,0.2,0.1,0.3,0.2,0.5c0.1,0.2,0.2,0.3,0.3,0.4
		c0.1,0.1,0.2,0.1,0.4,0.1c0.3,0,0.5-0.1,0.8-0.4c0.3-0.3,0.5-0.6,0.7-1c0.2-0.4,0.4-0.7,0.6-1c0.2-0.3,0.3-0.5,0.4-0.6
		c0.1-0.1,0.2-0.2,0.2-0.5C102.2,151,102.2,150.7,102.3,150.5z"/>
	<path class="st0" d="M114,143.7c0,0.1,0,0.2,0,0.2c0,0.1-0.1,0.2-0.2,0.4c-0.2,0.1-0.2,0.3-0.2,0.5c0,0.1,0,0.2,0,0.3
		c0,0.1,0,0.2,0,0.3c0,0.1,0,0.2,0,0.3s-0.1,0.2-0.1,0.2c0,0,0,0,0-0.1c0,0,0-0.1,0-0.1c0,0-0.1,0-0.1,0c0,0,0,0,0,0v0
		c0,0,0,0.1,0,0.3c0,0.2,0,0.3-0.1,0.5c0,0.2-0.1,0.3-0.1,0.5c0,0.1-0.1,0.2-0.2,0.2c0,0-0.1-0.1-0.1-0.2c0-0.2-0.1-0.2-0.1-0.2
		c-0.1,0-0.1,0.1-0.2,0.2s0,0.2,0,0.4s0,0.2,0,0.3c0,0.1-0.1,0.1-0.1,0.1c-0.1,0-0.2,0.1-0.3,0.2c-0.1,0.1-0.2,0.2-0.2,0.2
		c0,0.1,0,0.3,0,0.4c0,0.2,0,0.3,0,0.5c0,0.2-0.1,0.3-0.1,0.4c-0.1,0.1-0.2,0.2-0.3,0.2v0c0,0,0,0.1-0.1,0.3
		c-0.1,0.1-0.1,0.3-0.2,0.4c-0.1,0.2-0.1,0.3-0.2,0.4s-0.1,0.2-0.1,0.3c-0.2,0.6-0.4,1.1-0.7,1.6c-0.3,0.5-0.5,0.9-0.7,1.5
		c0,0.1-0.1,0.2-0.2,0.3c-0.1,0.1-0.2,0.2-0.3,0.4c-0.1,0.1-0.2,0.2-0.3,0.3c-0.1,0.1-0.2,0.1-0.2,0.1c-0.1,0-0.2,0-0.3,0
		c-0.1,0-0.2,0-0.3,0c-0.1,0-0.2,0-0.3,0c-0.4-0.1-0.6-0.2-0.8-0.3c-0.2-0.1-0.3-0.2-0.3-0.3s-0.1-0.2-0.1-0.3c0-0.1,0-0.2-0.1-0.3
		c-0.2-0.2-0.3-0.5-0.3-0.8c0-0.4,0-0.6,0-0.8c0-0.1,0-0.2,0-0.4c0-0.1,0-0.2,0-0.4c0-0.2,0.1-0.3,0.2-0.4c0.1-0.1,0.2-0.3,0.2-0.5
		c0-0.2,0.1-0.4,0.2-0.5c0.1-0.1,0.2-0.3,0.2-0.5c0-0.1,0.1-0.2,0.1-0.3c0.1-0.1,0.1-0.3,0.2-0.5c0.1-0.2,0.2-0.3,0.3-0.5
		c0.1-0.2,0.2-0.3,0.3-0.4c0.2-0.2,0.4-0.5,0.6-0.8c0.2-0.3,0.3-0.6,0.4-0.9c0-0.1,0.1-0.1,0.2-0.2c0.1,0,0.2-0.1,0.3-0.2
		s0.2-0.2,0.3-0.3c0.1-0.1,0.2-0.2,0.2-0.4c0,0,0,0,0.1-0.1c0.1,0,0.2,0,0.3-0.1s0.2,0,0.3-0.1s0.2,0,0.2,0c0.2,0,0.4,0,0.6,0.1
		c0.2,0.1,0.4,0.1,0.6,0.1c0.2,0,0.3-0.1,0.4-0.2c0.1-0.1,0.2-0.2,0.3-0.4c0.1-0.1,0.2-0.3,0.3-0.4c0.1-0.1,0.2-0.2,0.3-0.3
		c0,0,0.1-0.1,0.1-0.2c0.1-0.1,0.1-0.2,0.2-0.3c0.1-0.1,0.1-0.3,0.2-0.4c0-0.1,0.1-0.3,0.1-0.4c0-0.1,0.1-0.3,0.1-0.4
		c0-0.2,0-0.3,0.1-0.4c0.1-0.1,0.1-0.2,0.2-0.3c0.1-0.1,0.2-0.2,0.2-0.2c0.1-0.1,0.1-0.2,0.1-0.3c0-0.2,0-0.4,0.1-0.6
		c0.1-0.2,0.2-0.3,0.3-0.5c0.1-0.2,0.2-0.3,0.4-0.5c0.1-0.2,0.2-0.4,0.2-0.5c0-0.2,0-0.4,0.2-0.6c0.1-0.2,0.2-0.4,0.2-0.6
		c0-0.2,0.1-0.3,0.2-0.5c0.1-0.2,0.2-0.3,0.4-0.4c0.2-0.1,0.3-0.2,0.5-0.3c0.2-0.1,0.4-0.1,0.6-0.1c0.2,0,0.4,0.1,0.6,0.2
		c0.2,0.2,0.3,0.3,0.3,0.5c0,0.3,0,0.6-0.1,0.8c-0.1,0.3-0.1,0.5-0.2,0.8s-0.2,0.5-0.3,0.8s-0.1,0.5-0.1,0.8
		c-0.1,0.2-0.1,0.3-0.2,0.5c-0.1,0.2-0.1,0.3-0.2,0.4c-0.2,0.3-0.3,0.7-0.4,1.1c0,0.4-0.1,0.8-0.1,1.1c0,0.2,0,0.3-0.1,0.4
		c-0.1,0.1-0.2,0.2-0.2,0.2s-0.2,0.1-0.2,0.1c-0.1,0-0.1,0.1-0.1,0.1c0,0,0,0.1,0,0.1c0,0,0.1,0,0.1,0c0,0,0.1,0,0.1,0.1
		s0,0.1,0,0.1c0,0,0,0.1-0.1,0.1s-0.1,0.1-0.1,0.1c0,0.1,0,0.2,0.1,0.2s0.1,0.2,0.1,0.2c0,0.1,0,0.2-0.1,0.2c-0.1,0-0.2,0.1-0.3,0.2
		c0,0.4,0,0.8,0,1.1c0,0.3-0.1,0.6-0.1,0.8c-0.1,0.3-0.1,0.4-0.3,0.5c-0.1,0-0.1,0.1-0.1,0.3c0,0.1,0,0.3,0,0.5c0,0.2,0,0.3-0.1,0.4
		c0,0.1-0.1,0.2-0.3,0.2c-0.1,0-0.1,0-0.2-0.1c0-0.1-0.1-0.2-0.1-0.3s0-0.2,0-0.3s0-0.2,0-0.3c0,0,0,0-0.1,0.1c0,0-0.1,0.1-0.1,0.1
		c-0.1,0.1-0.1,0.1-0.1,0.2c0,0.1-0.1,0.1-0.1,0.1c0,0.1,0,0.1,0.1,0.2s0.1,0.1,0.1,0.1v0.7c0,0.1-0.1,0.2-0.2,0.3s-0.2,0.1-0.2,0.2
		c-0.1,0.1-0.1,0.1-0.2,0.2c-0.1,0.1-0.1,0.2-0.1,0.3c-0.1,0-0.1,0-0.1-0.1c0-0.2,0-0.4,0.1-0.6c0.1-0.2,0.1-0.4,0.1-0.5
		c0-0.1,0-0.1-0.1-0.2c0-0.1-0.1-0.1-0.1-0.2c0-0.2,0-0.3,0.1-0.5c0.1-0.2,0.1-0.4,0.1-0.6c0-0.1,0-0.1,0-0.2c0-0.1,0-0.1,0-0.2
		c0-0.1,0-0.2,0-0.2c0,0,0-0.1,0.1-0.2c0,0,0.1-0.1,0.1-0.2c0.1-0.1,0.1-0.2,0.2-0.3c0.1-0.1,0.1-0.2,0.2-0.4
		c0.1-0.1,0.1-0.2,0.1-0.3c0,0,0-0.1,0-0.2c0-0.1,0-0.1-0.1-0.1c0,0-0.1,0-0.1,0c0,0-0.1,0-0.1,0c0,0-0.1,0-0.1-0.1
		c0-0.4,0.1-0.7,0.2-1s0.2-0.7,0.2-1c0-0.2,0-0.4-0.1-0.4s-0.2-0.1-0.4-0.1c-0.1,0-0.1,0-0.2,0.1c-0.1,0-0.1,0.1-0.1,0.2
		C113.9,143.7,114,143.7,114,143.7z M111.4,146.4c-0.6,0.2-1.2,0.5-1.8,1.1c-0.6,0.5-1,1.2-1.3,2c0,0.2-0.1,0.3-0.2,0.5
		c-0.1,0.2-0.2,0.4-0.3,0.6c-0.1,0.2-0.2,0.5-0.2,0.7c-0.1,0.2-0.1,0.4-0.1,0.7c0,0.2-0.1,0.4-0.1,0.5c0,0,0,0.1,0,0.2
		c0,0.1,0,0.2,0,0.3c0,0.1,0,0.2,0.1,0.3s0.1,0.1,0.2,0.1c0.1,0,0.2-0.1,0.3-0.4c0.2-0.3,0.3-0.6,0.5-0.9c0.2-0.4,0.4-0.7,0.5-1.1
		c0.2-0.4,0.3-0.7,0.4-0.9c0.2-0.4,0.4-0.8,0.7-1.2c0.2-0.4,0.5-0.8,0.7-1.2c0.1,0,0.1-0.1,0.2-0.2c0.1-0.1,0.1-0.2,0.2-0.3
		c0.1-0.1,0.1-0.2,0.2-0.3c0-0.1,0.1-0.2,0.1-0.2S111.5,146.6,111.4,146.4z M114,157.1c0.1,0.1,0.2,0.1,0.3,0.2
		c0.1,0,0.2,0.1,0.2,0.2c-0.1,0.2-0.1,0.4-0.2,0.5s0,0.4,0,0.5c0,0,0,0.1,0,0.2c0,0.1-0.1,0.3-0.1,0.4c-0.1,0.2-0.2,0.3-0.3,0.4
		c-0.1,0.1-0.3,0.2-0.4,0.2c-0.1,0-0.2-0.1-0.3-0.2s-0.2-0.2-0.2-0.4c-0.1-0.1-0.1-0.3-0.2-0.4c0-0.1-0.1-0.3-0.1-0.4
		c0-0.1,0-0.2,0.1-0.3c0.1-0.1,0.1-0.2,0.1-0.2c0-0.1,0-0.1,0-0.2c0,0-0.1-0.1-0.1-0.2c0-0.2,0.1-0.5,0.1-0.7c0-0.3,0.1-0.5,0.1-0.7
		c0-0.1,0-0.2-0.1-0.3c-0.1-0.1-0.1-0.2-0.1-0.3c0-0.1,0-0.2,0.1-0.4c0.1-0.1,0.1-0.3,0.1-0.4c0,0,0-0.1,0-0.1c0,0,0-0.1,0-0.1
		c0-0.1,0-0.1,0.1-0.2c0-0.1,0.1-0.1,0.1-0.1s0.1-0.1,0.1-0.1c0-0.1,0.1-0.1,0.1-0.2c0,0,0-0.1,0-0.1c0,0,0-0.1,0-0.1
		c0-0.1,0.1-0.2,0.2-0.3c0,0,0,0.1,0,0.1c0,0,0,0,0,0c0,0,0,0,0,0c0,0,0,0,0-0.1c0,0-0.1,0-0.1,0c0.2-0.2,0.3-0.4,0.4-0.7
		c0.1-0.3,0.1-0.5,0.1-0.6c0,0,0-0.1,0-0.1c0,0-0.1,0-0.1,0.1c-0.1,0.1-0.1,0.2-0.1,0.3c0,0.1-0.1,0.2-0.1,0.3
		c0,0.1-0.1,0.1-0.1,0.1c-0.1,0-0.2,0-0.2-0.1c0-0.1,0.1-0.3,0.1-0.4c0-0.1,0.1-0.3,0.1-0.4c0,0,0.1-0.1,0.2-0.3
		c0.1-0.2,0.2-0.3,0.3-0.5c0.1-0.2,0.2-0.3,0.3-0.5s0.1-0.2,0.2-0.2c0,0,0.1,0,0.1,0c0,0,0,0,0.1,0c0.1,0,0.2,0,0.2-0.1
		c0-0.1,0.1-0.1,0.1-0.2c0-0.1,0-0.1,0-0.2c0-0.1,0-0.1,0.1-0.1c0.1,0,0.1,0,0.2,0.1s0.1,0.1,0.1,0.2c0,0.1,0.1,0.2,0.1,0.2
		c0,0.1,0,0.1,0,0.2c0,0.1,0,0.1-0.1,0.2s-0.1,0.1-0.2,0.2c-0.1,0.1-0.1,0.2-0.2,0.3c-0.1,0.1-0.1,0.3-0.1,0.4c0,0.1,0,0.2,0,0.3
		c0,0.1,0,0.2,0,0.3c0,0.1,0,0.3,0,0.4c0,0.1,0,0.3,0,0.4c0,0.2,0,0.3-0.1,0.4c-0.1,0.1-0.1,0.2-0.1,0.3c0,0.1,0,0.1,0.1,0.2
		c0.1,0.1,0.1,0.1,0.1,0.2c0,0.1,0,0.1-0.1,0.2c-0.1,0.1-0.1,0.1-0.1,0.2c0,0.1,0,0.1,0.1,0.1c0.1,0,0.1,0.1,0.1,0.1
		c0,0.1,0,0.2-0.1,0.2c-0.2,0.2-0.3,0.4-0.3,0.7s0,0.5,0,0.7c0,0.1,0,0.2,0,0.2c0,0.2,0,0.2-0.1,0.3c-0.1,0-0.1,0.1-0.1,0.3V157.1z
		 M113,146C113,146,113,146,113,146c0-0.1,0-0.1,0-0.2c0-0.1,0-0.1,0-0.1c0,0,0,0.1,0,0.2C113,145.9,113,146,113,146z M113.1,156.7
		C113.2,156.7,113.2,156.7,113.1,156.7c0.1-0.1,0.1-0.1,0.1-0.1c0,0,0-0.1,0-0.1c0,0,0,0-0.1-0.1c0,0,0,0.1-0.1,0.1c0,0,0,0,0,0.1
		C113.1,156.6,113.1,156.7,113.1,156.7C113.1,156.7,113.1,156.7,113.1,156.7z M113.5,154.2c0,0,0-0.1,0-0.1c0,0,0,0-0.1-0.1
		c0,0,0,0,0,0C113.4,154.1,113.4,154.1,113.5,154.2C113.4,154.2,113.4,154.2,113.5,154.2C113.5,154.2,113.5,154.2,113.5,154.2z
		 M114.2,143.7C114.2,143.7,114.2,143.8,114.2,143.7c-0.1,0.1-0.1,0.1-0.1,0v0L114.2,143.7z M114.4,151.4c-0.1,0-0.1,0.1-0.2,0.2
		c0,0.1,0,0.1,0,0.2c0,0.2,0,0.3,0.1,0.4c0-0.2,0.1-0.4,0.1-0.6c0.1-0.2,0.1-0.3,0.1-0.3c0-0.1,0-0.1-0.1-0.1c0,0,0,0.1,0,0.1
		C114.4,151.3,114.4,151.4,114.4,151.4z M114.3,152.9L114.3,152.9L114.3,152.9L114.3,152.9z M115,147.2c0,0.1,0,0.2,0,0.2
		s0,0.1,0,0.1c0,0,0,0,0,0.1c0,0,0.1-0.1,0.1-0.1s0-0.1,0-0.1c0,0,0-0.1,0-0.1C115.1,147.3,115.1,147.2,115,147.2z M115.3,147.3
		C115.4,147.2,115.4,147.2,115.3,147.3c0.1-0.1,0.1-0.1,0.1-0.2c0-0.1,0-0.1-0.1-0.1c0,0-0.1,0.1-0.1,0.1
		C115.3,147.2,115.3,147.2,115.3,147.3C115.3,147.3,115.3,147.3,115.3,147.3z"/>
	<path class="st0" d="M127.5,141.2c0,0,0.2-0.1,0.4-0.3c0.2-0.1,0.5-0.3,0.8-0.4c0.3-0.2,0.6-0.3,1-0.4c0.3-0.1,0.6-0.2,0.8-0.2
		c0.1,0,0.2,0,0.4,0.1c0.1,0.1,0.3,0.1,0.4,0.1c0.1,0,0.2,0,0.3,0c0.1,0,0.2,0,0.2,0c0.2,0,0.4,0,0.5,0.1c0.2,0,0.3,0.1,0.5,0.3
		c0,0,0.1,0.1,0.1,0.2c0.1,0.1,0.1,0.1,0.1,0.1c0,0,0.1,0,0.1-0.1s0-0.1,0-0.2c0-0.1,0-0.1,0-0.2s0.1-0.1,0.1-0.1
		c0.1,0,0.2,0,0.3,0.1c0.1,0.1,0.2,0.2,0.2,0.3c0.1,0.1,0.1,0.3,0.1,0.4c0,0.1,0,0.2,0,0.3c0,0.1,0,0.2,0,0.4c0,0.1,0,0.2,0,0.4
		c0,0.1,0,0.3,0,0.4c0,0.1,0,0.3,0,0.4c0,0.2,0,0.3-0.1,0.5c-0.1,0.2-0.2,0.3-0.4,0.3c-0.2,0-0.3-0.1-0.3-0.2c0-0.1-0.1-0.3-0.2-0.4
		c-0.1-0.1-0.2-0.3-0.4-0.4c-0.2-0.1-0.5-0.2-0.9-0.2c-0.4,0-0.8,0.1-1.3,0.2c-0.5,0.2-0.9,0.4-1.4,0.7c-0.4,0.3-0.8,0.6-1.1,1
		c-0.3,0.4-0.4,0.9-0.4,1.4c0,0.1,0,0.3,0.1,0.5c0.1,0.2,0.2,0.3,0.4,0.3c0.1,0,0.2-0.1,0.5-0.2c0.3-0.1,0.5-0.2,0.7-0.3h0
		c0,0,0.1,0.1,0.3,0.2c0.2,0.1,0.5,0.3,0.8,0.4c0.3,0.2,0.6,0.4,0.8,0.6c0.3,0.2,0.4,0.5,0.5,0.7c0,0.1-0.1,0.2-0.2,0.3
		c-0.1,0.1-0.3,0.2-0.5,0.3c-0.2,0.1-0.4,0.2-0.6,0.2c-0.2,0.1-0.3,0.1-0.5,0.1c-0.3,0-0.5,0-0.7,0.1c-0.2,0.1-0.4,0.2-0.5,0.3
		c-0.2,0.1-0.3,0.2-0.4,0.3c-0.1,0.1-0.2,0.2-0.3,0.2c-0.2,0-0.4,0.2-0.5,0.4c-0.2,0.2-0.4,0.4-0.5,0.7c-0.2,0.3-0.3,0.5-0.4,0.8
		c-0.1,0.3-0.1,0.5-0.1,0.6c0,0.2,0,0.3,0.1,0.5c0,0.1,0.1,0.3,0.2,0.5c0.1,0.3,0.2,0.5,0.3,0.7c0.1,0.2,0.2,0.3,0.3,0.5
		c0.1,0.1,0.2,0.2,0.4,0.4c0.1,0.1,0.3,0.2,0.6,0.4c0.3,0.2,0.6,0.4,0.9,0.5c0.3,0.1,0.6,0.2,0.8,0.2c0.4,0,0.7-0.1,1.2-0.3
		c0.4-0.2,0.8-0.4,1.2-0.7c0.4-0.3,0.7-0.7,1-1.2c0.3-0.5,0.4-1,0.4-1.5c0-0.1,0-0.2,0-0.4c0-0.1,0-0.3,0-0.4c0-0.1-0.1-0.2-0.1-0.3
		s-0.1-0.1-0.2-0.1c-0.1,0-0.1,0-0.2,0c-0.1,0.2-0.2,0.4-0.4,0.7c-0.2,0.2-0.4,0.4-0.5,0.6c-0.2,0.2-0.4,0.3-0.6,0.5
		c-0.2,0.1-0.5,0.2-0.7,0.2c-0.3,0-0.5-0.1-0.8-0.3c-0.3-0.2-0.5-0.4-0.5-0.7c0,0,0-0.1,0.1-0.1c0,0,0.1,0,0.1,0c0,0,0.1,0,0.1,0
		c0,0,0.1,0,0.1,0c0.2,0,0.4-0.1,0.6-0.2c0.2-0.1,0.3-0.3,0.5-0.4c0.3-0.4,0.6-0.7,0.9-1s0.5-0.7,0.7-1.1c0.2-0.4,0.5-0.8,0.7-1.3
		c0.3-0.5,0.6-1,0.9-1.7c0.1-0.1,0.2-0.3,0.4-0.5c0.2-0.2,0.4-0.4,0.7-0.6c0.3-0.2,0.5-0.3,0.8-0.5c0.3-0.1,0.5-0.2,0.8-0.2
		c0.1,0,0.3,0,0.4,0c0.2,0,0.2,0.1,0.2,0.3c0,0.3-0.1,0.4-0.3,0.5c-0.2,0.1-0.4,0.2-0.7,0.3c-0.2,0.1-0.5,0.3-0.7,0.5
		s-0.4,0.4-0.6,0.7c-0.2,0.3-0.3,0.5-0.4,0.8c0,0.1-0.1,0.2-0.2,0.3c-0.1,0.1-0.1,0.2-0.1,0.3c0,0.2-0.1,0.4-0.2,0.5
		c-0.1,0.1-0.2,0.3-0.2,0.5c0,0.1,0,0.2,0.1,0.2c0.2,0.2,0.3,0.4,0.4,0.5c0.1,0.2,0.2,0.3,0.3,0.5c0.1,0.2,0.1,0.3,0.1,0.5
		c0,0.2,0,0.4,0,0.6c0,0.2-0.1,0.5-0.2,0.7c-0.2,0.3-0.3,0.6-0.4,0.8c-0.1,0.3-0.2,0.6-0.4,0.9c-0.2,0.3-0.4,0.5-0.5,0.8
		c-0.1,0.2-0.3,0.4-0.5,0.6c-0.3,0.2-0.6,0.4-0.9,0.6c-0.3,0.2-0.7,0.4-1.1,0.5s-0.7,0.2-1.1,0.2c-0.2,0-0.4,0-0.7-0.1
		c-0.3,0-0.5-0.1-0.8-0.2c-0.3-0.1-0.5-0.2-0.8-0.3c-0.3-0.1-0.5-0.2-0.7-0.4c-0.2-0.2-0.4-0.3-0.7-0.3c0,0-0.1,0-0.1-0.1
		c-0.1-0.1-0.1-0.2-0.2-0.3c-0.1-0.1-0.2-0.3-0.3-0.4c-0.1-0.1-0.2-0.3-0.3-0.3c0,0-0.1-0.1-0.2-0.3c-0.1-0.2-0.2-0.4-0.3-0.6
		c-0.1-0.2-0.2-0.5-0.3-0.8c-0.1-0.3-0.1-0.5-0.1-0.8c0-0.1,0-0.2,0.1-0.3s0.1-0.2,0.1-0.3c0-0.1,0-0.2,0-0.3c0-0.1,0-0.2,0-0.3
		c0-0.1,0-0.2,0.1-0.3c0.1-0.1,0.1-0.1,0.1-0.2c0,0,0-0.1,0-0.1c0,0,0-0.1,0-0.1c0,0,0-0.1,0.1-0.3c0.1-0.2,0.2-0.3,0.3-0.5
		c0.1-0.2,0.2-0.3,0.3-0.5c0.1-0.1,0.2-0.2,0.3-0.2c0.1,0,0.2-0.1,0.3-0.2s0.2-0.2,0.2-0.3c0.1-0.1,0.1-0.3,0.1-0.4
		c0-0.1,0.1-0.2,0.1-0.3c0,0,0-0.1,0-0.2c-0.2-0.4-0.4-0.8-0.5-1.2c-0.1-0.4-0.2-0.8-0.2-1.2c0-0.3,0-0.5,0.1-0.8
		c0-0.2,0.1-0.4,0.2-0.6c0.1-0.2,0.1-0.4,0.2-0.5c0.1-0.2,0.2-0.3,0.3-0.5c0.1-0.2,0.2-0.3,0.3-0.4c0.1-0.1,0.2-0.2,0.3-0.3
		c0.1-0.1,0.2-0.2,0.3-0.3S127.5,141.3,127.5,141.2z"/>
	<path class="st0" d="M152.1,143.7c0,0.1,0,0.2,0,0.2c0,0.1-0.1,0.2-0.2,0.4c-0.2,0.1-0.2,0.3-0.2,0.5c0,0.1,0,0.2,0,0.3
		c0,0.1,0,0.2,0,0.3c0,0.1,0,0.2,0,0.3s-0.1,0.2-0.1,0.2c0,0,0,0,0-0.1c0,0,0-0.1,0-0.1c0,0-0.1,0-0.1,0c0,0,0,0,0,0v0
		c0,0,0,0.1,0,0.3c0,0.2,0,0.3-0.1,0.5c0,0.2-0.1,0.3-0.1,0.5c0,0.1-0.1,0.2-0.2,0.2c0,0-0.1-0.1-0.1-0.2c0-0.2-0.1-0.2-0.1-0.2
		c-0.1,0-0.1,0.1-0.2,0.2s0,0.2,0,0.4s0,0.2,0,0.3c0,0.1-0.1,0.1-0.1,0.1c-0.1,0-0.2,0.1-0.3,0.2c-0.1,0.1-0.2,0.2-0.2,0.2
		c0,0.1,0,0.3,0,0.4c0,0.2,0,0.3,0,0.5c0,0.2-0.1,0.3-0.1,0.4c-0.1,0.1-0.2,0.2-0.3,0.2v0c0,0,0,0.1-0.1,0.3
		c-0.1,0.1-0.1,0.3-0.2,0.4c-0.1,0.2-0.1,0.3-0.2,0.4s-0.1,0.2-0.1,0.3c-0.2,0.6-0.4,1.1-0.7,1.6c-0.3,0.5-0.5,0.9-0.7,1.5
		c0,0.1-0.1,0.2-0.2,0.3c-0.1,0.1-0.2,0.2-0.3,0.4c-0.1,0.1-0.2,0.2-0.3,0.3c-0.1,0.1-0.2,0.1-0.2,0.1c-0.1,0-0.2,0-0.3,0
		c-0.1,0-0.2,0-0.3,0c-0.1,0-0.2,0-0.3,0c-0.4-0.1-0.6-0.2-0.8-0.3c-0.2-0.1-0.3-0.2-0.3-0.3s-0.1-0.2-0.1-0.3c0-0.1,0-0.2-0.1-0.3
		c-0.2-0.2-0.3-0.5-0.3-0.8c0-0.4,0-0.6,0-0.8c0-0.1,0-0.2,0-0.4c0-0.1,0-0.2,0-0.4c0-0.2,0.1-0.3,0.2-0.4c0.1-0.1,0.2-0.3,0.2-0.5
		c0-0.2,0.1-0.4,0.2-0.5c0.1-0.1,0.2-0.3,0.2-0.5c0-0.1,0.1-0.2,0.1-0.3c0.1-0.1,0.1-0.3,0.2-0.5c0.1-0.2,0.2-0.3,0.3-0.5
		c0.1-0.2,0.2-0.3,0.3-0.4c0.2-0.2,0.4-0.5,0.6-0.8c0.2-0.3,0.3-0.6,0.4-0.9c0-0.1,0.1-0.1,0.2-0.2c0.1,0,0.2-0.1,0.3-0.2
		s0.2-0.2,0.3-0.3c0.1-0.1,0.2-0.2,0.2-0.4c0,0,0,0,0.1-0.1c0.1,0,0.2,0,0.3-0.1s0.2,0,0.3-0.1s0.2,0,0.2,0c0.2,0,0.4,0,0.6,0.1
		c0.2,0.1,0.4,0.1,0.6,0.1c0.2,0,0.3-0.1,0.4-0.2c0.1-0.1,0.2-0.2,0.3-0.4c0.1-0.1,0.2-0.3,0.3-0.4c0.1-0.1,0.2-0.2,0.3-0.3
		c0,0,0.1-0.1,0.1-0.2c0.1-0.1,0.1-0.2,0.2-0.3c0.1-0.1,0.1-0.3,0.2-0.4c0-0.1,0.1-0.3,0.1-0.4c0-0.1,0.1-0.3,0.1-0.4
		c0-0.2,0-0.3,0.1-0.4c0.1-0.1,0.1-0.2,0.2-0.3c0.1-0.1,0.2-0.2,0.2-0.2c0.1-0.1,0.1-0.2,0.1-0.3c0-0.2,0-0.4,0.1-0.6
		c0.1-0.2,0.2-0.3,0.3-0.5c0.1-0.2,0.2-0.3,0.4-0.5c0.1-0.2,0.2-0.4,0.2-0.5c0-0.2,0-0.4,0.2-0.6c0.1-0.2,0.2-0.4,0.2-0.6
		c0-0.2,0.1-0.3,0.2-0.5c0.1-0.2,0.2-0.3,0.4-0.4c0.2-0.1,0.3-0.2,0.5-0.3c0.2-0.1,0.4-0.1,0.6-0.1c0.2,0,0.4,0.1,0.6,0.2
		c0.2,0.2,0.3,0.3,0.3,0.5c0,0.3,0,0.6-0.1,0.8c-0.1,0.3-0.1,0.5-0.2,0.8s-0.2,0.5-0.3,0.8s-0.1,0.5-0.1,0.8
		c-0.1,0.2-0.1,0.3-0.2,0.5c-0.1,0.2-0.1,0.3-0.2,0.4c-0.2,0.3-0.3,0.7-0.4,1.1c0,0.4-0.1,0.8-0.1,1.1c0,0.2,0,0.3-0.1,0.4
		c-0.1,0.1-0.2,0.2-0.2,0.2s-0.2,0.1-0.2,0.1c-0.1,0-0.1,0.1-0.1,0.1c0,0,0,0.1,0,0.1c0,0,0.1,0,0.1,0c0,0,0.1,0,0.1,0.1
		s0,0.1,0,0.1c0,0,0,0.1-0.1,0.1s-0.1,0.1-0.1,0.1c0,0.1,0,0.2,0.1,0.2s0.1,0.2,0.1,0.2c0,0.1,0,0.2-0.1,0.2c-0.1,0-0.2,0.1-0.3,0.2
		c0,0.4,0,0.8,0,1.1c0,0.3-0.1,0.6-0.1,0.8c-0.1,0.3-0.1,0.4-0.3,0.5c-0.1,0-0.1,0.1-0.1,0.3c0,0.1,0,0.3,0,0.5c0,0.2,0,0.3-0.1,0.4
		c0,0.1-0.1,0.2-0.3,0.2c-0.1,0-0.1,0-0.2-0.1c0-0.1-0.1-0.2-0.1-0.3s0-0.2,0-0.3s0-0.2,0-0.3c0,0,0,0-0.1,0.1c0,0-0.1,0.1-0.1,0.1
		c-0.1,0.1-0.1,0.1-0.1,0.2c0,0.1-0.1,0.1-0.1,0.1c0,0.1,0,0.1,0.1,0.2s0.1,0.1,0.1,0.1v0.7c0,0.1-0.1,0.2-0.2,0.3s-0.2,0.1-0.2,0.2
		c-0.1,0.1-0.1,0.1-0.2,0.2c-0.1,0.1-0.1,0.2-0.1,0.3c-0.1,0-0.1,0-0.1-0.1c0-0.2,0-0.4,0.1-0.6c0.1-0.2,0.1-0.4,0.1-0.5
		c0-0.1,0-0.1-0.1-0.2c0-0.1-0.1-0.1-0.1-0.2c0-0.2,0-0.3,0.1-0.5c0.1-0.2,0.1-0.4,0.1-0.6c0-0.1,0-0.1,0-0.2c0-0.1,0-0.1,0-0.2
		c0-0.1,0-0.2,0-0.2c0,0,0-0.1,0.1-0.2c0,0,0.1-0.1,0.1-0.2c0.1-0.1,0.1-0.2,0.2-0.3c0.1-0.1,0.1-0.2,0.2-0.4
		c0.1-0.1,0.1-0.2,0.1-0.3c0,0,0-0.1,0-0.2c0-0.1,0-0.1-0.1-0.1c0,0-0.1,0-0.1,0c0,0-0.1,0-0.1,0c0,0-0.1,0-0.1-0.1
		c0-0.4,0.1-0.7,0.2-1s0.2-0.7,0.2-1c0-0.2,0-0.4-0.1-0.4s-0.2-0.1-0.4-0.1c-0.1,0-0.1,0-0.2,0.1c-0.1,0-0.1,0.1-0.1,0.2
		C152,143.7,152,143.7,152.1,143.7z M149.4,146.4c-0.6,0.2-1.2,0.5-1.8,1.1c-0.6,0.5-1,1.2-1.3,2c0,0.2-0.1,0.3-0.2,0.5
		c-0.1,0.2-0.2,0.4-0.3,0.6c-0.1,0.2-0.2,0.5-0.2,0.7c-0.1,0.2-0.1,0.4-0.1,0.7c0,0.2-0.1,0.4-0.1,0.5c0,0,0,0.1,0,0.2
		c0,0.1,0,0.2,0,0.3c0,0.1,0,0.2,0.1,0.3s0.1,0.1,0.2,0.1c0.1,0,0.2-0.1,0.3-0.4c0.2-0.3,0.3-0.6,0.5-0.9c0.2-0.4,0.4-0.7,0.5-1.1
		c0.2-0.4,0.3-0.7,0.4-0.9c0.2-0.4,0.4-0.8,0.7-1.2c0.2-0.4,0.5-0.8,0.7-1.2c0.1,0,0.1-0.1,0.2-0.2c0.1-0.1,0.1-0.2,0.2-0.3
		c0.1-0.1,0.1-0.2,0.2-0.3c0-0.1,0.1-0.2,0.1-0.2S149.5,146.6,149.4,146.4z M152,157.1c0.1,0.1,0.2,0.1,0.3,0.2
		c0.1,0,0.2,0.1,0.2,0.2c-0.1,0.2-0.1,0.4-0.2,0.5s0,0.4,0,0.5c0,0,0,0.1,0,0.2c0,0.1-0.1,0.3-0.1,0.4c-0.1,0.2-0.2,0.3-0.3,0.4
		c-0.1,0.1-0.3,0.2-0.4,0.2c-0.1,0-0.2-0.1-0.3-0.2s-0.2-0.2-0.2-0.4c-0.1-0.1-0.1-0.3-0.2-0.4c0-0.1-0.1-0.3-0.1-0.4
		c0-0.1,0-0.2,0.1-0.3c0.1-0.1,0.1-0.2,0.1-0.2c0-0.1,0-0.1,0-0.2c0,0-0.1-0.1-0.1-0.2c0-0.2,0.1-0.5,0.1-0.7c0-0.3,0.1-0.5,0.1-0.7
		c0-0.1,0-0.2-0.1-0.3c-0.1-0.1-0.1-0.2-0.1-0.3c0-0.1,0-0.2,0.1-0.4c0.1-0.1,0.1-0.3,0.1-0.4c0,0,0-0.1,0-0.1c0,0,0-0.1,0-0.1
		c0-0.1,0-0.1,0.1-0.2c0-0.1,0.1-0.1,0.1-0.1s0.1-0.1,0.1-0.1c0-0.1,0.1-0.1,0.1-0.2c0,0,0-0.1,0-0.1c0,0,0-0.1,0-0.1
		c0-0.1,0.1-0.2,0.2-0.3c0,0,0,0.1,0,0.1c0,0,0,0,0,0c0,0,0,0,0,0c0,0,0,0,0-0.1c0,0-0.1,0-0.1,0c0.2-0.2,0.3-0.4,0.4-0.7
		c0.1-0.3,0.1-0.5,0.1-0.6c0,0,0-0.1,0-0.1c0,0-0.1,0-0.1,0.1c-0.1,0.1-0.1,0.2-0.1,0.3c0,0.1-0.1,0.2-0.1,0.3
		c0,0.1-0.1,0.1-0.1,0.1c-0.1,0-0.2,0-0.2-0.1c0-0.1,0.1-0.3,0.1-0.4c0-0.1,0.1-0.3,0.1-0.4c0,0,0.1-0.1,0.2-0.3
		c0.1-0.2,0.2-0.3,0.3-0.5c0.1-0.2,0.2-0.3,0.3-0.5s0.1-0.2,0.2-0.2c0,0,0.1,0,0.1,0c0,0,0,0,0.1,0c0.1,0,0.2,0,0.2-0.1
		c0-0.1,0.1-0.1,0.1-0.2c0-0.1,0-0.1,0-0.2c0-0.1,0-0.1,0.1-0.1c0.1,0,0.1,0,0.2,0.1s0.1,0.1,0.1,0.2c0,0.1,0.1,0.2,0.1,0.2
		c0,0.1,0,0.1,0,0.2c0,0.1,0,0.1-0.1,0.2s-0.1,0.1-0.2,0.2c-0.1,0.1-0.1,0.2-0.2,0.3c-0.1,0.1-0.1,0.3-0.1,0.4c0,0.1,0,0.2,0,0.3
		c0,0.1,0,0.2,0,0.3c0,0.1,0,0.3,0,0.4c0,0.1,0,0.3,0,0.4c0,0.2,0,0.3-0.1,0.4c-0.1,0.1-0.1,0.2-0.1,0.3c0,0.1,0,0.1,0.1,0.2
		c0.1,0.1,0.1,0.1,0.1,0.2c0,0.1,0,0.1-0.1,0.2c-0.1,0.1-0.1,0.1-0.1,0.2c0,0.1,0,0.1,0.1,0.1c0.1,0,0.1,0.1,0.1,0.1
		c0,0.1,0,0.2-0.1,0.2c-0.2,0.2-0.3,0.4-0.3,0.7s0,0.5,0,0.7c0,0.1,0,0.2,0,0.2c0,0.2,0,0.2-0.1,0.3c-0.1,0-0.1,0.1-0.1,0.3V157.1z
		 M151,146C151,146,151,146,151,146c0-0.1,0-0.1,0-0.2c0-0.1,0-0.1,0-0.1c0,0,0,0.1,0,0.2C151,145.9,151,146,151,146z M151.2,156.7
		C151.2,156.7,151.2,156.7,151.2,156.7c0.1-0.1,0.1-0.1,0.1-0.1c0,0,0-0.1,0-0.1c0,0,0,0-0.1-0.1c0,0,0,0.1-0.1,0.1c0,0,0,0,0,0.1
		C151.1,156.6,151.1,156.7,151.2,156.7C151.2,156.7,151.2,156.7,151.2,156.7z M151.5,154.2c0,0,0-0.1,0-0.1c0,0,0,0-0.1-0.1
		c0,0,0,0,0,0C151.4,154.1,151.4,154.1,151.5,154.2C151.4,154.2,151.4,154.2,151.5,154.2C151.5,154.2,151.5,154.2,151.5,154.2z
		 M152.2,143.7C152.2,143.7,152.2,143.8,152.2,143.7c-0.1,0.1-0.1,0.1-0.1,0v0L152.2,143.7z M152.5,151.4c-0.1,0-0.1,0.1-0.2,0.2
		c0,0.1,0,0.1,0,0.2c0,0.2,0,0.3,0.1,0.4c0-0.2,0.1-0.4,0.1-0.6c0.1-0.2,0.1-0.3,0.1-0.3c0-0.1,0-0.1-0.1-0.1c0,0,0,0.1,0,0.1
		C152.5,151.3,152.5,151.4,152.5,151.4z M152.3,152.9L152.3,152.9L152.3,152.9L152.3,152.9z M153,147.2c0,0.1,0,0.2,0,0.2
		s0,0.1,0,0.1c0,0,0,0,0,0.1c0,0,0.1-0.1,0.1-0.1s0-0.1,0-0.1c0,0,0-0.1,0-0.1C153.1,147.3,153.1,147.2,153,147.2z M153.4,147.3
		C153.4,147.2,153.5,147.2,153.4,147.3c0.1-0.1,0.1-0.1,0.1-0.2c0-0.1,0-0.1-0.1-0.1c0,0-0.1,0.1-0.1,0.1
		C153.3,147.2,153.3,147.2,153.4,147.3C153.3,147.3,153.4,147.3,153.4,147.3z"/>
	<path class="st0" d="M156.5,150.9c0.1,0,0.1-0.1,0.2-0.2s0.1-0.2,0.1-0.3c0-0.1,0.1-0.2,0.1-0.3c0-0.1,0.1-0.2,0.1-0.2
		c0-0.1,0-0.2,0-0.3c0-0.2,0-0.4,0.1-0.6c0.1-0.2,0.1-0.4,0.1-0.5c0-0.4,0.2-0.9,0.4-1.3s0.4-0.9,0.6-1.2c0-0.1,0.1-0.2,0.2-0.3
		c0.1-0.2,0.2-0.3,0.3-0.5c0.1-0.2,0.2-0.3,0.3-0.4c0.1-0.1,0.2-0.2,0.2-0.2c0,0,0.1,0,0.1,0c0,0,0,0,0.1,0c0.1,0,0.2,0,0.4,0
		c0.1,0,0.2,0,0.4,0c0.2,0,0.3,0,0.4,0.1c0.1,0.1,0.2,0.2,0.2,0.3c0.1,0.1,0.1,0.3,0.1,0.4s0.1,0.3,0.1,0.4c0,0.1,0,0.1,0,0.2
		c0,0.1,0,0.1,0,0.3c0.2-0.3,0.4-0.5,0.7-0.8c0.3-0.3,0.4-0.5,0.4-0.6c0-0.1,0.1-0.2,0.2-0.4c0.1-0.1,0.3-0.3,0.5-0.4
		c0.2-0.1,0.4-0.3,0.6-0.4c0.2-0.1,0.4-0.1,0.6-0.1c0.3,0,0.6,0.1,0.8,0.2c0.2,0.1,0.4,0.3,0.5,0.5c0.1,0.2,0.2,0.4,0.3,0.7
		c0,0.2,0.1,0.5,0.1,0.7c0,0.4-0.1,0.8-0.2,1c-0.1,0.2-0.3,0.5-0.7,0.7c-0.1,0.1-0.2,0.2-0.2,0.3c0,0.1-0.1,0.2-0.1,0.3
		c0,0.1-0.1,0.2-0.1,0.3s-0.1,0.1-0.2,0.1c-0.2,0-0.4-0.1-0.5-0.4c-0.1-0.3-0.2-0.6-0.2-1s-0.1-0.7-0.1-1c0-0.3-0.1-0.4-0.2-0.4
		c0,0,0,0,0,0s0,0,0,0c-0.2,0.1-0.5,0.3-0.7,0.6c-0.3,0.3-0.5,0.6-0.7,0.9c-0.2,0.3-0.4,0.6-0.6,1c-0.2,0.3-0.3,0.6-0.4,0.9
		c-0.1,0.2-0.1,0.4-0.2,0.6c-0.1,0.2-0.2,0.4-0.3,0.5c-0.1,0.1-0.2,0.3-0.2,0.4c0,0.2-0.1,0.3-0.1,0.5c0,0.2-0.1,0.4-0.2,0.7
		c-0.1,0.3-0.2,0.6-0.4,1c-0.2,0.4-0.3,0.8-0.3,1.2c0,0.4-0.2,0.8-0.4,1.2c0,0,0,0.1-0.1,0.3c0,0.2-0.1,0.4-0.2,0.7
		c-0.1,0.2-0.2,0.5-0.4,0.7c-0.2,0.2-0.3,0.3-0.6,0.3c-0.3,0-0.5-0.2-0.6-0.5s-0.2-0.7-0.2-1.1c0-0.1,0-0.2,0-0.3c0-0.1,0-0.2,0-0.3
		c0-0.2,0-0.3,0-0.5c0-0.2,0-0.3,0-0.5c0-0.2,0-0.5,0.1-0.8c0.1-0.3,0.2-0.6,0.3-0.8c0,0,0,0,0,0s0,0,0-0.1c0-0.1,0-0.1-0.1-0.2
		c0-0.1-0.1-0.1-0.1-0.2c0-0.1,0-0.2,0-0.4c0-0.1,0.1-0.2,0.1-0.3L156.5,150.9z M159.6,149.1L159.6,149.1L159.6,149.1L159.6,149.1z"
		/>
	<path class="st0" d="M166.5,150.8c0-0.1,0-0.3,0.1-0.6c0-0.3,0.1-0.7,0.1-1.1c0.1-0.4,0.1-0.8,0.2-1.3c0.1-0.5,0.2-0.9,0.3-1.2
		c0.1-0.4,0.2-0.7,0.3-0.9c0.1-0.3,0.2-0.4,0.4-0.4c0.2,0,0.4,0,0.5,0.1c0.2,0.1,0.4,0.1,0.5,0.2c0.2,0,0.3,0.2,0.4,0.4
		c0.1,0.2,0.2,0.5,0.3,0.7s0.2,0.6,0.2,0.8s0.1,0.5,0.1,0.7c0,0.3,0,0.6,0,0.8c0,0.3,0,0.6-0.1,0.8c-0.1,0.2-0.1,0.4-0.1,0.6
		c0,0.2,0,0.4-0.1,0.6c0,0,0,0.1,0,0.1c0,0.1,0,0.3,0,0.6s0,0.7,0.1,1s0.1,0.6,0.2,0.9c0.1,0.3,0.2,0.4,0.4,0.4c0.1,0,0.1,0,0.1,0
		c0.5-0.6,0.9-1.1,1.3-1.7c0.4-0.6,0.7-1.2,0.8-2c0-0.2,0.1-0.4,0.3-0.5c0.1-0.1,0.3-0.2,0.5-0.2c0.2,0,0.3,0,0.4,0.1
		c0.1,0.1,0.2,0.2,0.2,0.3c0,0.1,0,0.2-0.1,0.3c-0.1,0.1-0.1,0.2-0.2,0.3c-0.1,0.1-0.2,0.2-0.3,0.4c-0.1,0.1-0.1,0.2-0.2,0.4
		c0,0,0,0.1-0.1,0.2c0,0.1-0.1,0.2-0.1,0.3s-0.1,0.2-0.2,0.3c-0.1,0.1-0.1,0.2-0.2,0.2c-0.1,0.1-0.2,0.2-0.2,0.3
		c0,0.1,0,0.2-0.1,0.3c-0.1,0.2-0.2,0.4-0.4,0.5c-0.1,0.2-0.2,0.3-0.3,0.5c0,0.1-0.1,0.3-0.2,0.4c-0.2,0.2-0.3,0.3-0.3,0.5
		c-0.1,0.1-0.2,0.2-0.3,0.3c-0.1,0.1-0.3,0.2-0.4,0.2s-0.3,0.1-0.5,0.2c-0.2,0-0.3,0.1-0.4,0.1c-0.2,0-0.4,0-0.6-0.1
		c-0.2-0.1-0.4-0.2-0.6-0.4c-0.2-0.2-0.4-0.3-0.5-0.5c-0.2-0.2-0.3-0.4-0.4-0.6c0-0.1-0.1-0.2-0.2-0.4c-0.1-0.2-0.2-0.3-0.3-0.5
		s-0.2-0.3-0.2-0.5c-0.1-0.2-0.1-0.4-0.1-0.5c0-0.3,0-0.5,0-0.8C166.5,151.3,166.5,151.1,166.5,150.8z M168.2,142
		c0-0.1,0-0.3,0.1-0.4c0-0.2,0.2-0.3,0.4-0.3c0.1,0,0.3,0.1,0.4,0.1s0.3,0,0.4,0.1c0.1,0,0.2,0.1,0.3,0.2c0.1,0.1,0.1,0.2,0.1,0.3
		c0,0.3-0.1,0.5-0.2,0.8c-0.1,0.3-0.4,0.4-0.7,0.4c-0.1,0-0.3,0-0.3-0.1c-0.1-0.1-0.2-0.2-0.2-0.3c-0.1-0.1-0.1-0.2-0.1-0.4
		S168.2,142.1,168.2,142z"/>
	<path class="st0" d="M180.7,158.3c-0.1,0-0.1,0-0.2,0c-0.1,0-0.1,0-0.1,0c-0.1,0-0.2,0.1-0.4,0.2c-0.3,0-0.6-0.1-0.8-0.3
		c-0.2-0.2-0.4-0.4-0.5-0.7c-0.1-0.3-0.2-0.6-0.3-0.9c-0.1-0.3-0.1-0.7-0.1-1c0-0.1,0-0.2,0-0.3s0-0.2,0-0.3c0-0.2,0-0.3,0-0.5
		c0-0.1,0-0.3,0-0.4c0-0.1,0-0.2,0.1-0.3c0-0.1,0.1-0.2,0.1-0.3c0-0.1,0.1-0.2,0.1-0.3c0-0.1,0.1-0.1,0.1-0.2c0,0,0-0.1,0-0.1
		c0,0,0-0.1,0-0.1c0,0,0-0.1,0-0.1c0,0,0-0.1,0-0.1c0-0.1,0-0.1-0.1-0.2c-0.1-0.1-0.1-0.1-0.1-0.2c0-0.1,0-0.3,0.1-0.4
		s0.1-0.3,0.1-0.4c0-0.1,0-0.1-0.1-0.2c0,0-0.1-0.1-0.1-0.1c0,0,0-0.1,0.1-0.1c0.1-0.1,0.2-0.2,0.3-0.5c0-0.2,0-0.4,0-0.5
		c0-0.2,0-0.4,0-0.5c0-0.2,0-0.4,0-0.6c0-0.1,0-0.2,0-0.3c0-0.1,0-0.2,0-0.3c0,0,0-0.1,0-0.1c0,0,0-0.1-0.1-0.1c0,0-0.2,0.1-0.3,0.2
		c-0.2,0.1-0.3,0.3-0.5,0.5c-0.2,0.2-0.3,0.4-0.5,0.6c-0.1,0.2-0.2,0.4-0.2,0.5c0,0.1-0.1,0.2-0.1,0.4c-0.1,0.2-0.2,0.3-0.3,0.5
		c-0.1,0.2-0.2,0.4-0.3,0.6c-0.1,0.2-0.2,0.3-0.3,0.4c-0.2,0.3-0.3,0.5-0.5,0.8c-0.2,0.3-0.4,0.5-0.5,0.7s-0.4,0.3-0.7,0.5
		c-0.2,0.1-0.5,0.2-0.9,0.2c-0.2,0-0.4-0.1-0.5-0.2c-0.1-0.1-0.2-0.3-0.3-0.5c-0.1-0.2-0.1-0.5-0.1-0.7c0-0.3,0-0.5,0-0.8
		c0-0.3,0-0.6,0-0.8c0-0.2,0-0.5,0-0.8c0-0.1,0-0.2,0-0.3c0-0.1,0-0.2,0-0.3c0-0.1,0-0.1,0.1-0.2c0-0.1,0.1-0.1,0.1-0.2
		c0-0.1,0-0.1,0-0.2c0-0.1,0-0.1,0-0.2c0-0.4,0-0.8,0.1-1.2c0.1-0.4,0.1-0.8,0.1-1.2c0-0.1,0-0.2,0.1-0.2s0.2-0.1,0.3-0.2
		c0.1-0.1,0.2-0.1,0.4-0.1s0.2,0,0.4,0c0.2,0,0.3,0,0.4,0.1s0.2,0.2,0.2,0.3c0,0.1,0.1,0.2,0.1,0.3c0,0.1,0,0.3,0,0.4
		c0,0.5,0,1,0,1.5c0,0.5,0,1-0.1,1.5c0,0.2-0.1,0.4-0.2,0.7c-0.1,0.2-0.2,0.5-0.2,0.7c0,0,0,0.1,0.1,0.2c0.1,0,0.3-0.1,0.5-0.3
		s0.3-0.4,0.5-0.7c0.2-0.3,0.4-0.5,0.6-0.8c0.2-0.3,0.4-0.5,0.7-0.7c0.1-0.1,0.2-0.3,0.4-0.5c0.1-0.2,0.3-0.4,0.4-0.5
		c0.1-0.1,0.2-0.2,0.4-0.3c0.1-0.1,0.3-0.2,0.4-0.3c0.1-0.1,0.3-0.2,0.4-0.2s0.2-0.1,0.2-0.2c0.1-0.2,0.3-0.3,0.5-0.4
		s0.4-0.1,0.6-0.1c0.3,0,0.5,0.1,0.6,0.2s0.2,0.3,0.3,0.5c0.1,0.2,0.1,0.6,0.1,0.9s0,0.9,0,1.4c0,0.1,0,0.2-0.1,0.3
		c-0.1,0.1-0.1,0.2-0.2,0.2c-0.1,0.1-0.1,0.2-0.2,0.2c-0.1,0.1-0.1,0.2-0.1,0.3c0,0,0,0.1,0,0.1c0,0,0,0.1,0,0.1s0,0.1,0,0.2
		c0,0.1,0,0.1,0,0.2c0,0.1,0,0.2,0.1,0.2s0.1,0.2,0.1,0.2c0,0.1,0,0.1-0.1,0.2c-0.1,0-0.2,0.1-0.2,0.1c0,0.1,0,0.1,0,0.2
		c0,0.1,0,0.1,0,0.1v0c-0.1,0.2-0.1,0.4-0.2,0.7c0,0.3,0,0.7,0,1c0,0.2,0,0.4,0,0.6s0,0.5,0,0.7c0,0.2,0,0.4,0,0.5
		c0,0.1,0.1,0.2,0.1,0.2c0.1,0,0.2-0.1,0.3-0.3c0.1-0.2,0.3-0.5,0.4-0.8c0.2-0.3,0.3-0.6,0.4-1c0.1-0.3,0.3-0.6,0.3-0.8
		c0-0.1,0.1-0.2,0.2-0.2c0.1,0,0.2-0.1,0.2-0.1c0-0.2,0-0.3,0.1-0.4c0-0.1,0.1-0.2,0.2-0.3c0.1-0.1,0.2-0.2,0.3-0.4
		c0.1-0.2,0.2-0.3,0.3-0.5c0.1-0.2,0.2-0.3,0.4-0.4s0.3-0.2,0.5-0.2c0.2,0,0.3,0.1,0.3,0.3c0,0.1,0,0.2-0.1,0.4s-0.2,0.4-0.3,0.5
		c-0.1,0.2-0.2,0.3-0.3,0.5c-0.1,0.1-0.2,0.2-0.3,0.3c-0.1,0.1-0.1,0.2-0.1,0.4c0,0.1,0,0.3-0.1,0.3c-0.2,0.2-0.3,0.4-0.3,0.6
		c0,0.2-0.1,0.4-0.3,0.5c-0.1,0.3-0.1,0.5-0.2,0.6c0,0.2-0.1,0.4-0.1,0.6c0,0.1,0,0.1,0,0.2c0,0.1,0,0.1,0,0.2
		c0,0.2-0.1,0.4-0.2,0.6c-0.2,0.2-0.2,0.3-0.2,0.5c0,0.1,0,0.2,0,0.3c0,0.1-0.1,0.2-0.2,0.2c0,0,0,0.1-0.1,0.1s-0.1,0.2-0.1,0.3
		c-0.1,0.1-0.1,0.2-0.2,0.4C180.9,158.1,180.8,158.2,180.7,158.3z M179,151.4C179,151.4,179,151.3,179,151.4L179,151.4
		c-0.1,0-0.1,0.1,0,0.1C179,151.5,179,151.4,179,151.4z M179.8,154.9L179.8,154.9L179.8,154.9L179.8,154.9z"/>
	<path class="st0" d="M184.8,157.2c-0.2-0.1-0.2-0.2-0.3-0.3c0-0.2-0.1-0.3-0.2-0.3c0,0,0-0.1,0-0.2c0-0.1,0-0.3,0-0.5
		c0-0.2,0-0.4,0-0.5c0-0.2,0-0.3,0-0.4c0-0.2,0-0.3-0.1-0.5c-0.1-0.2-0.1-0.3-0.1-0.4c0-0.1,0-0.2,0.1-0.3c0.1-0.1,0.1-0.2,0.1-0.3
		c0-0.1,0-0.2,0-0.4c0-0.1,0-0.3,0-0.4c0-0.2-0.1-0.3-0.2-0.5c-0.1-0.1-0.2-0.3-0.2-0.5c0-0.3,0-0.5,0-0.8c0-0.3,0-0.5,0.1-0.8
		c0-0.1,0-0.3,0.1-0.4c0.1-0.1,0.1-0.2,0.1-0.3s0-0.2-0.1-0.3c-0.1-0.1-0.1-0.2-0.1-0.3c0,0,0-0.1,0-0.1c0-0.1,0-0.1,0-0.1
		c0-0.1,0-0.2,0-0.4c0-0.1,0-0.2,0-0.4c0-0.2,0-0.4,0.1-0.7c0.1-0.2,0.1-0.4,0.1-0.6c0-0.1,0-0.2-0.1-0.3c-0.1-0.1-0.1-0.2-0.1-0.3
		c0-0.4,0-0.7,0.1-1.1s0.1-0.7,0.1-1c0-0.1,0-0.2,0-0.3c0-0.1,0-0.2,0-0.3c0-0.1,0-0.1,0.1-0.2c0.1,0,0.1-0.1,0.1-0.2
		c0-0.1,0-0.1,0-0.2c0-0.1,0-0.1,0-0.2c0-0.1,0-0.2,0.1-0.3c0.1-0.1,0.1-0.2,0.1-0.4c0-0.1,0-0.2-0.1-0.3c-0.1-0.1-0.1-0.2-0.1-0.3
		c0-0.1,0.1-0.2,0.2-0.4c0.1-0.2,0.2-0.4,0.2-0.7c0-0.1,0-0.2-0.1-0.3c0-0.1-0.1-0.2-0.1-0.3c0-0.3,0-0.6,0.1-0.9
		c0.1-0.3,0.1-0.6,0.1-0.9c0-0.1,0-0.1,0-0.2c0-0.1,0-0.1,0-0.2c0,0,0-0.1,0.1-0.1c0.1,0,0.2-0.1,0.3-0.1c0.1,0,0.2,0,0.3-0.1
		c0.1,0,0.2,0,0.3,0c0.4,0,0.7,0.1,0.8,0.3c0.1,0.2,0.2,0.5,0.2,1c0,0.5-0.1,1.1-0.2,1.8c-0.1,0.6-0.2,1.2-0.2,1.8
		c0,0.1,0,0.3-0.1,0.6c-0.1,0.2-0.1,0.5-0.1,0.8c0.1,0.1,0.1,0.1,0.1,0.3c0,0.1,0,0.2-0.1,0.3c-0.1,0.3-0.2,0.6-0.2,1s0,0.7,0,1
		c0,0.2,0,0.3-0.1,0.4c-0.1,0.1-0.1,0.2-0.1,0.3s0,0.2,0.1,0.2c0,0.1,0,0.2-0.1,0.3c0,0.1,0,0.2-0.1,0.3c0,0.1,0,0.1,0.1,0.1
		c0.1,0,0.2-0.1,0.4-0.4c0.2-0.3,0.5-0.6,0.8-1c0.3-0.4,0.7-0.7,1.1-1s0.8-0.4,1.1-0.4c0.2,0,0.4,0.1,0.5,0.3
		c0.1,0.2,0.2,0.3,0.2,0.5c0,0.3-0.1,0.6-0.3,1c-0.2,0.4-0.4,0.7-0.5,1.1c-0.2,0.4-0.4,0.8-0.8,1.3c-0.3,0.5-0.7,0.8-1,1.1
		c-0.1,0.1-0.1,0.2-0.2,0.3c0,0.2,0.1,0.4,0.3,0.7c0.1,0.2,0.3,0.4,0.5,0.7c0.2,0.2,0.4,0.4,0.5,0.7c0.2,0.2,0.4,0.4,0.5,0.6
		c0.2,0.2,0.5,0.4,0.7,0.6c0.3,0.2,0.5,0.4,0.7,0.6c0.2,0.2,0.3,0.3,0.5,0.4s0.4,0.1,0.6,0.2s0.4,0.1,0.5,0.3s0.3,0.3,0.5,0.5
		c-0.1,0.2-0.3,0.4-0.5,0.6c-0.2,0.1-0.5,0.2-0.8,0.2c0,0-0.2,0-0.4-0.1c-0.2,0-0.5-0.1-0.8-0.2c-0.3-0.1-0.6-0.2-0.8-0.3
		s-0.4-0.2-0.5-0.3c0-0.2-0.1-0.3-0.3-0.3c-0.1,0-0.2-0.1-0.3-0.2c-0.3-0.3-0.6-0.5-0.9-0.8c-0.3-0.3-0.6-0.6-0.8-0.9
		c-0.1-0.2-0.3-0.4-0.5-0.4c-0.2-0.1-0.3-0.1-0.4-0.1c0,0-0.1,0.1-0.2,0.2c-0.1,0.1-0.2,0.2-0.2,0.3c0,0.1,0,0.1,0.1,0.2
		c0,0,0.1,0.1,0.1,0.2c0.1,0.1,0.1,0.3,0.2,0.5c0.1,0.2,0.1,0.3,0.1,0.5c0,0.2,0.1,0.3,0.1,0.3c0,0.1,0,0.1-0.1,0.2
		c-0.1,0.1-0.1,0.1-0.1,0.2c0,0,0,0,0.1,0.1c0,0,0.1,0.1,0.1,0.2c0.1,0.1,0.1,0.3,0.2,0.5c0.1,0.2,0.1,0.4,0.2,0.5
		c0.1,0.2,0.1,0.3,0.1,0.4c0,0.1,0,0.2,0,0.3c0,0.2-0.1,0.3-0.1,0.5c-0.1,0.2-0.2,0.3-0.3,0.4c-0.1,0.1-0.3,0.2-0.4,0.2
		c-0.2,0-0.3-0.1-0.4-0.2c-0.1-0.1-0.2-0.3-0.2-0.5C184.7,157.4,184.7,157.3,184.8,157.2L184.8,157.2
		C184.7,157.2,184.8,157.2,184.8,157.2z M184.4,151.2C184.5,151.2,184.5,151.2,184.4,151.2c0-0.1,0-0.2,0-0.3c0,0,0,0-0.1,0.1
		c0,0,0,0.1,0,0.1C184.4,151.1,184.4,151.2,184.4,151.2z M184.8,151.7c0-0.1,0-0.2,0-0.2l-0.2,0.3l-0.2,0.3c0,0,0,0.1,0,0.1
		c0,0,0.1,0.1,0.1,0.1c0.2,0,0.3-0.1,0.3-0.2c0-0.1,0-0.2,0-0.2V151.7z M184.8,153c0-0.1-0.1-0.1-0.1-0.1c-0.1,0-0.1,0.1-0.1,0.1
		c0,0.1,0,0.1,0.1,0.1C184.8,153.1,184.8,153.1,184.8,153z M184.8,154.3c0-0.1,0.1-0.2,0.1-0.3s0-0.2,0-0.2c0-0.1,0-0.1-0.1-0.2
		c0,0-0.1,0-0.1,0.1c0,0.1,0,0.2,0,0.3C184.7,154,184.7,154.2,184.8,154.3z M184.8,148.9C184.8,148.9,184.8,148.9,184.8,148.9
		c0.1-0.1,0.1-0.1,0.1-0.2c0,0,0-0.1-0.1-0.1c0,0-0.1,0.1-0.1,0.2C184.7,148.8,184.7,148.8,184.8,148.9
		C184.7,148.8,184.7,148.9,184.8,148.9z M185,147.4c0,0-0.1,0-0.1,0c0,0,0,0,0,0s0,0,0,0C184.9,147.4,184.9,147.5,185,147.4
		C185,147.5,185,147.4,185,147.4z M185,155.4C185,155.4,185,155.4,185,155.4C185,155.4,185,155.4,185,155.4c0,0.1,0,0.1,0,0.1
		s0,0,0,0.1c0.1-0.1,0.1-0.1,0.1-0.2c0-0.1,0-0.2-0.1-0.2C185.1,155.2,185.1,155.2,185,155.4C185.1,155.3,185,155.3,185,155.4z
		 M185.1,152L185.1,152L185.1,152L185.1,152z M188.8,145.4C188.8,145.4,188.8,145.3,188.8,145.4c-0.2-0.1-0.4,0-0.6,0.1
		s-0.4,0.3-0.6,0.5c-0.2,0.2-0.4,0.4-0.6,0.7c-0.2,0.2-0.3,0.5-0.4,0.7c-0.1,0.1-0.1,0.2-0.2,0.4s-0.2,0.3-0.3,0.5
		c-0.1,0.2-0.2,0.3-0.2,0.4c-0.1,0.1-0.1,0.3-0.1,0.4c0,0.1,0,0.1,0.1,0.2c0.1,0,0.2,0.1,0.3,0.1c0.1,0,0.1,0,0.1,0
		c0.2-0.1,0.4-0.3,0.6-0.4c0.2-0.1,0.3-0.3,0.4-0.5c0.1-0.2,0.3-0.3,0.4-0.5c0.1-0.2,0.2-0.3,0.4-0.5c0,0,0.1-0.1,0.1-0.2
		s0.2-0.3,0.3-0.4c0.1-0.2,0.2-0.4,0.2-0.6C188.8,145.9,188.8,145.6,188.8,145.4z"/>
</g>
</svg>
